<?xml version="1.0" encoding="UTF-8"?>
<svg id="Layer_1" data-name="Layer 1" xmlns="http://www.w3.org/2000/svg" viewBox="0 0 36.65 30.3">
  <path d="m15.37,22.86c-.28-2.85-.57-5.12-.71-5.12s-1.7,1.43-3.56,2.99c-3.85,3.41-4.85,3.7-5.98,1.28-.85-1.85-1.28-1.99-2.56-.57-.57.71-1,.71-1.7.14-.43-.28-.86-1-.86-1.42,0-1,2.99-3.85,5.84-5.55q2.13-1.28.57-1.71c-2.56-.57-5.12-2.99-5.12-4.7,0-1,.28-1.7.42-1.7.29,0,2.57,1.14,5.27,2.42,5.83,2.71,6.41,2.85,5.55.57-2.13-5.41,1.14-12.81,3.42-7.83.57,1.28.57,1.85,0,2.42-1,1-1,5.12,0,5.12.42,0,1.84-.85,3.13-1.99,2.99-2.28,7.69-4.56,9.68-4.56,1.85,0,2.7.71,3.27,2.71.43,1.71.29,1.85-1.41,1.85-1,0-3.28.86-4.85,1.71-1.7.86-2.42,1.43-1.7,1.28,2.27-.71,8.82-1.14,10.39-.71,2.99.71,2.85,4.27,0,4.27-1.7,0-12.1,1.85-12.38,2.28-.15,0,1.28,1.85,2.99,3.99,3.13,3.56,4.27,6.27,2.56,6.27-.43,0-2.85-2.14-5.27-4.7l-4.56-4.7v6.69c0,6.27-.57,8.25-1.57,5.55-.28-.57-.71-3.42-.86-6.27Z"/>
</svg>