<?xml version="1.0" encoding="utf-8"?>
<!-- Generator: Adobe Illustrator 27.7.0, SVG Export Plug-In . SVG Version: 6.00 Build 0)  -->
<svg version="1.1" id="Layer_1" xmlns="http://www.w3.org/2000/svg" xmlns:xlink="http://www.w3.org/1999/xlink" x="0px" y="0px"
	 viewBox="0 0 1088.9 363.1" style="enable-background:new 0 0 1088.9 363.1;" xml:space="preserve">
<g transform="translate(0.000000,394.000000) scale(0.100000,-0.100000)">
	<path d="M-7955.7,11151.8c-14-16-10-62,13-169c14-65,26-76,51-51s23,195-2,218C-7916.7,11170.8-7939.7,11171.8-7955.7,11151.8z"/>
	<path d="M-3555.7,11041.8c-89-19-339-105-441-153c-313-145-691-444-916-724c-97-122-123-140-167-120c-35,15-112,124-125,175
		c-19,76-43,88-133,67c-215-48-354-61-364-35c-6,16,28,65,109,154c88,98,127,187,95,219c-18,18-79,14-116-8c-35-21-72-74-72-103
		c0-14,10-11,55,20c51,33,57,35,71,21c15-14,11-23-35-91c-65-97-99-122-197-147c-43-11-119-40-169-65c-97-49-257-162-274-193
		c-15-27,8-66,41-70c38-5,183,66,243,118c82,71,140,85,225,55c63-22,111-19,229,16c156,46,159,47,167,13c29-129,48-156,151-209
		c48-25,82-50,90-65c7-14,13-55,13-92s5-79,11-95c24-66,116-127,207-139c78-10,228,20,293,59c93,56,69,74-49,37c-94-29-177-27-243,8
		c-36,18-60,39-71,61c-15,30-15,37-1,84c32,110,80,197,151,270c37,40,91,104,119,142c129,176,349,336,820,592c78,42,289,103,359,103
		c67,0,104-14,104-39c0-33-84-135-156-189c-38-29-125-82-194-119l-125-68l63-3c54-3,74,2,129,28c183,85,433,305,433,381
		c0,28-46,75-90,93C-3372.7,11053.8-3478.7,11058.8-3555.7,11041.8z M-5934.7,10177.8c-15-28-98-79-155-96c-27-8-51-13-53-11
		c-10,9,95,88,141,105C-5934.7,10201.8-5921.7,10201.8-5934.7,10177.8z"/>
	<path d="M-693.7,10919.8c-56-20-152-107-152-138c0-14,12-33,28-45c25-21,34-22,127-16c55,4,106,12,113,19c10,8,13,30,10,80
		c-3,61-7,72-31,93C-630.7,10939.8-635.7,10940.8-693.7,10919.8z M-641.7,10834.8c-17-31-39-48-60-48c-32,0-38,16-14,40
		C-693.7,10848.8-629.7,10855.8-641.7,10834.8z"/>
	<path d="M-7150.7,10900.8c-47-24-68-47-216-236c-199-254-240-300-511-578c-133-137-249-264-256-281c-38-90,101-74,193,22l40,42
		l-30-6c-16-3-38-9-47-12c-31-12-21,20,23,75c70,89,215,181,308,196c38,6,41,5,35-12c-4-11-34-57-67-104c-71-101-86-133-71-158
		c23-36,56-25,179,56c171,113,232,144,257,131c13-7,17-16,13-27c-29-74-8-132,48-132c18,0,42,6,52,14c17,12,18,16,4,37
		c-12,18-14,42-11,92c6,89-4,101-76,94l-53-6l26,31c39,46,30,68-35,93c-30,12-56,28-58,36c-1,8,20,49,48,91c27,42,68,118,91,170
		c54,124,81,169,141,235c52,58,83,116,74,139C-7056.7,10921.8-7113.7,10920.8-7150.7,10900.8z M-7292.7,10609.8c-4-10-24-38-46-63
		s-70-103-106-175c-71-139-93-163-159-172c-61-8-56,16,21,96c35,36,109,126,165,199c57,72,109,132,117,132
		C-7291.7,10626.8-7288.7,10620.8-7292.7,10609.8z M-7418.7,10125.8c-23-33-136-109-162-109c-4,0,9,21,27,46c38,54,81,84,121,84
		C-7406.7,10146.8-7405.7,10145.8-7418.7,10125.8z"/>
	<path d="M-5896.7,10881.8c-47-25-46-65,2-80c49-16-1-123-80-175c-103-65-119-16-36,110c30,47,54,92,53,100c-9,47-151,4-231-70
		c-54-50-59-80-7-41c25,18,100,51,116,51c11,0,0-32-31-94c-49-97-45-156,10-156c43,0,140,59,201,122c71,73,81,91,93,155
		C-5790.7,10888.8-5826.7,10919.8-5896.7,10881.8z"/>
	<path d="M-10021.7,10857.8c-17-10-42-36-55-57c-13-22-73-91-132-154c-60-63-139-160-177-215c-80-119-219-306-345-465
		c-50-63-120-153-155-200c-36-47-124-148-197-224c-74-77-132-144-130-150c6-17,37-19,65-4c62,32,243,238,455,516
		c76,99,168,208,204,243c61,56,223,172,231,164c2-2-16-41-39-87c-35-66-65-104-149-189c-58-58-133-131-168-162c-56-50-63-60-60-89
		c2-23,11-37,30-47c24-14,30-13,79,9c28,14,83,53,122,87c90,82,255,193,285,193h23l-20-29c-35-49-61-114-61-153c0-79,85-87,220-22
		c83,40,117,42,155,12c16-12,42-22,60-22c73,0,334,201,430,331c52,70,138,150,143,134c8-23-47-91-184-231c-77-80-144-155-148-167
		c-9-29,9-61,38-69c38-9,252,52,341,97c60,31,98,43,153,50c89,10,158,40,234,103c77,63,194,200,209,243c7,22,44,67,96,120
		c47,46,87,82,89,80c9-9-132-274-211-397c-172-269-219-381-196-467c14-50,52-83,95-83c50,0,60,18,31,52c-30,35-32,85-9,173
		c26,101,253,518,425,780c99,151,129,214,129,265c0,39-22,54-70,47c-62-8-92-38-150-148c-142-269-364-549-506-639
		c-100-63-114-51-51,47c59,90,97,164,97,185c0,37-81,50-144,24c-59-25-122-133-141-243c-7-40-20-84-28-96c-20-30-142-91-229-114
		c-113-30-106-7,48,157c63,68,144,166,178,219c84,126,176,301,176,333c0,44-42,44-94-1c-10-9-51-63-92-121c-40-58-96-127-124-155
		c-28-27-67-75-85-106c-29-47-56-71-177-156c-128-90-197-133-212-133c-3,0,5,30,19,68c24,66,63,112,94,112c8,0,28-12,44-27l29-28
		l17,22c23,27,36,116,21,143c-16,30-72,36-122,11c-64-31-145-107-180-168c-31-55-58-75-115-87c-41-9-83-42-83-66c0-42-63-67-89-36
		c-10,12-1,36,44,121c45,86,53,109,45,125c-28,53-146,2-350-150c-74-56-150-110-168-122c-59-37-49-7,18,50c164,140,279,284,350,435
		c56,118,26,135-105,58c-47-27-85-48-85-45c0,13,318,411,366,459c29,29,30,51,5,65C-9989.7,10879.8-9984.7,10879.8-10021.7,10857.8z
		 M-8279.7,10661.8c-21-43-51-50-35-7c10,27,39,56,47,47C-8264.7,10699.8-8270.7,10681.8-8279.7,10661.8z"/>
	<path d="M-5089.7,10566.8c-47-52-48-80-3-80c35,0,63,22,87,68C-4973.7,10616.8-5035.7,10625.8-5089.7,10566.8z"/>
	<path d="M-3491.7,10528.8c-17-9-101-65-187-124c-86-60-158-108-161-108c-2,0-7,17-10,38c-15,81-18,83-129,60c-55-12-61-11-99,11
		c-60,34-139,38-212,11c-135-51-218-189-153-254c55-55,169-37,313,49c50,30,96,55,104,55c7,0,30-19,51-41c38-41,39-42,93-36
		c65,6,115,31,222,108c45,32,114,78,154,102c81,47,135,104,124,130C-3389.7,10551.8-3450.7,10551.8-3491.7,10528.8z
		 M-4189.7,10335.8c17-28-51-79-105-79c-40,0-48,16-24,48C-4287.7,10345.8-4208.7,10364.8-4189.7,10335.8z"/>
	<path d="M-1505.7,10492.8c-58-29-115-57-128-60c-20-7-21-6-12,20c13,32,0,51-48,71c-27,11-41,12-70,2c-73-23-208-100-272-154
		c-49-42-72-55-96-55c-18,0-35,4-39,9c-3,6-41,8-91,4c-79-6-86-4-109,17c-39,36-105,25-234-42c-104-54-208-95-217-85
		c-10,9,49,68,95,94c96,55,125,102,77,124c-66,30-183-31-328-170c-91-88-110-111-110-136c0-48,35-69,107-62c33,3,87,15,119,27
		c71,24,92,25,139,5c50-21,130-19,205,5c35,11,85,20,110,20c65-1,165-23,170-38c7-23-50-61-156-102c-59-23-136-58-172-77
		s-77-42-92-50c-16-8-28-21-28-29c0-12,5-12,35,0c19,8,102,37,184,65c82,27,184,66,226,85c85,40,107,43,125,22c18-23-16-83-69-121
		c-25-19-73-41-106-51c-107-30-171-73-163-111c5-25,55-20,118,12c60,31,69,31,44,3c-67-75-271-197-441-262c-88-34-327-86-396-86
		c-20,0-39-4-42-10s-48-10-101-10c-91,0-108-6-81-28c19-16,344,3,462,28c462,96,648,185,776,372c29,42,48,59,76,68
		c21,7,99,49,173,93c283,167,347,220,407,335c32,59,68,82,131,82c78,0,79,51,2,64c-22,3-40,9-40,11c0,3,16,19,35,36
		c40,36,52,68,35,98c-8,17-20,21-58,21C-1390.7,10546.8-1422.7,10535.8-1505.7,10492.8z M-1837.7,10354.8c-3-23-92-98-115-98
		c-25,0-12,30,30,75C-1874.7,10381.8-1831.7,10393.8-1837.7,10354.8z M-1555.7,10322.8c24-30-81-169-179-235c-65-44-211-121-229-121
		c-28,0-7,35,72,123c110,122,188,192,245,222C-1592.7,10339.8-1572.7,10341.8-1555.7,10322.8z"/>
	<path d="M-9752.7,10516.8c-53-32-71-130-24-130c39,0,102,97,87,135C-9696.7,10541.8-9714.7,10540.8-9752.7,10516.8z"/>
	<path d="M-3315.7,10452.8c-110-46-156-75-208-129c-54-58-62-77-38-97c12-9,38,3,138,67c68,44,145,91,171,107c37,21,47,32,45,49
		C-3211.7,10480.8-3248.7,10481.8-3315.7,10452.8z"/>
	<path d="M-3255.7,10359.8c-38-26-49-45-50-80c0-50,35-82,96-90c45-5,53-3,62,14c8,15,6,26-9,49c-12,18-19,46-19,77c0,45-1,47-28,47
		C-3218.7,10376.8-3242.7,10368.8-3255.7,10359.8z"/>
	<path d="M-6733.7,10311.8c-17-14-34-25-39-25c-16,0-211-117-257-155c-72-59-54-105,33-83c23,6,44,8,48,5c3-4-48-97-113-207
		c-97-164-133-216-193-276c-41-42-89-87-108-101c-35-27-42-43-18-43c29,0,181,148,242,235c75,108,249,341,296,398
		c58,70,149,139,214,163c49,18,83,41,83,56c0,12-108,58-135,58C-6693.7,10336.8-6717.7,10325.8-6733.7,10311.8z"/>
	<path d="M-1203.7,10328.8c-8-5-12-22-10-38c3-26,6-29,37-26c43,3,63,19,59,46c-2,16-11,22-38,24
		C-1174.7,10335.8-1196.7,10332.8-1203.7,10328.8z"/>
	<path d="M-6734.7,9920.8c-12-15-21-41-21-60c0-29,4-34,23-34c43,0,105,93,75,112C-6682.7,9953.8-6714.7,9946.8-6734.7,9920.8z"/>
	<path d="M-7505.7,9362.8c-19-7-64-28-100-46c-94-47-188-81-195-70c-3,5-1,28,5,51c14,50,9,57-24,35c-35-23-58-70-54-114
		c3-32,7-37,31-40c15-2,60,9,100,24c100,37,287,145,287,165C-7455.7,9378.8-7462.7,9378.8-7505.7,9362.8z"/>
</g>
<path id="path2844" d="M-534-105.5c-15.9-5.7-12.7-46.6,6.8-87.8c8-16.9,18-24.5,29.1-22.2c4.4,0.9,12.3,2.3,17.5,3
	c5.7,0.8,9.1,2.5,8.4,4.2c-0.6,1.6-5.3,15-10.4,29.9c-9.3,27.1-10.1,39.4-2.7,39.4c5.5,0,28.5-19.3,32.8-27.6
	c2.1-4.1,5.1-7.5,6.7-7.5c1.9,0,2.4-6.1,1.6-19c-1.2-18.6-1.1-19.1,5.3-21.6s63.8-4.6,69.9-2.6c5.7,1.9,3.3,23.6-6.9,61.5
	c-5.5,20.5-11.2,39.4-12.6,42c-3.9,7.4-13.6,5.9-22.5-3.3c-6.4-6.7-7.6-9.7-6.7-16.9c1.1-9,9.3-23.7,23.7-42.7
	c13.2-17.4,9.8-31.3-7.1-29.6c-5.7,0.6-10.2,3.5-15.3,9.7c-6.6,8.1-7.4,11.6-9.8,38.9c-3.4,39.6-3.7,40.5-12.3,45
	c-10.3,5.3-18.6,5.1-17-0.6c0.7-2.4,3.3-11.4,5.7-20.1c2.5-8.6,3.9-16.3,3.2-17c-0.7-0.7-9.7,7.1-20,17.4
	c-14.3,14.3-20.9,19.1-28.1,20.5c-13,2.4-15.2-0.6-15.1-22.1c0.1-14.9,1.5-21.4,8.1-36.2c4.4-9.9,8-19.8,8-22c0-6-6.2-4.7-14.3,3
	c-13.3,12.6-24.6,63.7-13.5,61.3c4.5-1,7.7,4,7.7,12.2C-513.9-105.6-522-101.2-534-105.5L-534-105.5z M-673.5-112.4
	c-11.3-4.9-11.8-11.5-2.9-37.5c8.7-25.2,10-44.1,5.9-84.7c-2.5-24.7,2.4-51.2,12-65.5c20.8-30.9,65.3-22.6,70.5,13.2
	c0.7,4.8,2.4,13.7,3.8,19.6c1.4,6,1.6,12.5,0.5,14.5c-3.9,7-26.2,28.6-29.5,28.6c-6.3,0-5.8-4.1,2.8-22.7c9.1-19.8,10.2-28,6-43.1
	c-4.3-15.6-18.9-19.2-32.2-8c-9.8,8.2-12.8,19.4-12.8,47.9c0,29.7,0.5,30.9,13.7,30.9c24.9,0,36.3,19.6,28,48.1
	c-5.4,18.7-17.4,35.7-34.2,48.6C-658.6-109.6-663.4-108-673.5-112.4z M-639.4-148.8c4.2-8.2,7.6-16.6,7.6-18.7
	c0-3.3-14.6-16.5-18.2-16.5c-2.2,0-5.1,39.2-3.2,44.9C-650.6-130.7-647.5-132.9-639.4-148.8L-639.4-148.8z M-990.6-119.4
	c-20.2-12.1-23.6-20.3-24.7-60.3c-1.2-41.1,3.3-57.5,23.7-86.1c18.7-26.2,24.8-32.7,40.8-43.1c11.9-7.7,16.4-9,38.9-11.3
	c30.5-3.1,51.1-1,62.2,6.5c9.4,6.3,11.6,12.2,11.9,32.6c0.4,25.5-11.5,44.4-38.5,60.7c-3.8,2.3-3.7,3.4,1,13
	c2.8,5.8,6.1,17.6,7.4,26.3c1.2,8.7,4.2,20.6,6.5,26.3c4.3,10.6,14.9,20.3,17.5,16c0.8-1.3,3.1-14.4,5.2-29.2c4.6-33,9-43.1,21-48.1
	c13.3-5.6,30.6-1.8,33.8,7.4c3.1,8.8-6,22.7-17.5,26.9c-17.4,6.3-28.2,31.8-20.1,47.4c8.8,17.1,2.3,26.9-10.1,15.3
	c-5.8-5.5-11-4.7-11,1.7c0,5-6.6,4.5-18.9-1.4c-15-7.3-22.4-22.2-26.6-53.7c-3.1-23.4-3.7-25.1-10.9-29.5c-4.2-2.5-8.3-4.6-9.1-4.6
	c-0.9,0-2.3,4.6-3.2,10.3c-2.3,14.4-8.1,24.6-32,56.2C-967.6-108-969.9-107-990.6-119.4z M-971.6-138.3c7.3-5.1,30.3-48.4,38.8-73.2
	c15.9-46.2,26.5-57.6,26-28.1c-0.3,18.3,2.3,19.4,19,8.2c10.9-7.3,32.7-37.5,32.6-45.2c0-8-5.2-22.3-8.5-23.6
	c-12.8-4.9-26.6-4.4-47.2,1.9c-43.3,13.2-71,43.2-78.8,85.4c-9.3,50.2-9.3,49.9-6.2,61C-992.3-139.2-980.2-132.4-971.6-138.3z
	 M-320.8-113.2c-3.4-0.5-7.5-2.5-9-4.5c-2.2-2.8-4.2-2.9-10.3-0.7c-4.2,1.6-9.5,2.1-11.8,1.2c-5.4-2.1-11.5-16.7-11.5-27.6
	c0-18.8,16.3-54.5,33.1-72.6c8.8-9.4,12.9-12,19.7-12.3c4.7-0.2,10.2-0.5,12.2-0.6s4.1-1.9,4.7-4s5.4-12.8,10.6-23.8
	c5.2-11,10.9-25,12.7-30.9c2.7-9,5.6-12.4,17-19.7c7.6-4.8,15.3-9.4,17.1-10.1c9.6-3.7-2.6,30.2-23.5,65.7
	c-8.1,13.8-19.6,36.7-25.4,51c-10,24.4-23,68.6-23,78C-308.2-117.2-314-112.2-320.8-113.2L-320.8-113.2z M-322.6-145.7
	c13.6-46.7,19.2-65.5,20.7-69.1c2.9-7.2-10-5.5-18.8,2.5c-6.4,5.9-8.5,11.1-13.8,35c-6.4,28.5-7.5,38.8-4.7,41.7
	C-336.7-133.1-324-140.8-322.6-145.7L-322.6-145.7z M-712.3-121.6c-4.4-8.3-1.2-33.8,6.3-49.9c3.5-7.6,6.4-16.2,6.4-19.2
	c0-9.9-11.3-16.7-19-11.4c-1.5,1-4.2,9.2-6,18.1c-4.9,24.1-17.2,54.9-23.5,58.8c-3,1.9-7.9,4.1-11,5.1c-7.9,2.4-7.4-2.6,2.7-25.8
	c10.1-23.2,15-40.2,13.8-48.3c-0.7-4.8-2.3-6-8.4-6c-6.3,0-8.3,1.6-12.4,9.9c-6.4,13.1-13.8,40.5-13.9,51.5
	c-0.1,10.2-1.8,13.2-9.3,17.2c-9.4,5-13,3.5-14.8-6c-1.3-6.9-0.6-10.2,3.2-14.4c2.7-3,9.7-16.2,15.7-29.2
	c9.9-21.7,10.6-24.4,7.9-31.9c-2.5-6.8-2.3-9.2,1-14.3c4.6-7,12.7-6.4,15.1,1.2c1.9,6.1,5.1,6,13-0.3c7.9-6.2,15.4-6.4,19.7-0.6
	c3.1,4.1,3.9,4.1,13.3-1.3c11-6.2,18.1-7,25.5-3c5.8,3.1,6.4,15.7,1.9,38.8c-1.6,8.3-3.1,23.3-3.3,33.3c-0.3,14-1.6,19.9-5.5,25.1
	C-700.4-115.5-708.4-114.3-712.3-121.6L-712.3-121.6z M-603.5-120.4c-0.9-2.3,1.8-10.8,6.1-19.4c10.6-21,13.8-33.9,15.5-61.5
	c1.1-19.1,2.3-24.1,6-26.3c3.7-2.3,5.4-1.6,9.6,4.1c4.2,5.7,7,6.9,16,6.9c10.6,0,11,0.3,12.7,9.2c2.4,12.8-1.1,16.9-15.5,18.4
	l-12.2,1.3l-4.3,22.6c-2.4,12.4-4.3,28.5-4.4,35.7l-0.2,13.2H-588C-598.5-116.3-602.3-117.3-603.5-120.4z M-288.2-129.8
	c0-4.7,1.8-9.9,3.9-11.7c6-5,13.3-20.7,17.6-38.1c2.1-8.6,6.1-18.8,8.8-22.6l4.9-6.9h-8.9c-8.1,0-8.9-0.6-8.9-7.2
	c0-7.9,4.4-10.2,19.3-10.3c6.8,0,8.7-1.5,12.4-9.2c9.2-19.5,31.8-36.2,39-29c1.8,1.8-0.8,6.9-8.8,16.7
	c-10.2,12.5-16.3,23.4-13.9,24.9c0.5,0.3,8.8,2.5,18.4,4.9c33.4,8.4,41.6,16.1,33.5,31.2c-2.9,5.4-4.6,6-14,5
	c-6.7-0.8-15.7-4.6-23.9-10.2c-7.2-4.9-16-9.6-19.4-10.5c-5.9-1.4-6.7-0.3-13.2,16.8c-4.7,12.3-6.9,23-6.9,32.6c0,7.8-1,17-2.3,20.4
	c-2.7,7.1-13.9,11.8-28.1,11.8C-287.8-121.3-288.2-121.6-288.2-129.8L-288.2-129.8z M-171.7-155.1c-6.1-9.4-1.9-19.9,8.4-20.9
	c11.3-1.1,18.1,3.3,18.1,11.8C-145.2-149.7-163.9-143.2-171.7-155.1z"/>
<path d="M-527.7,78.8c-9.1,4-13.4,13.6-16.6,22.4c-12.4,28.6-24.9,57.1-38.7,85c-2.7,7.7-3.7,15.9-5.1,23.9
	c-0.6,5.3,1.1,11.8,6.3,14.3c6.2,1.6,11.5-2.9,16.4-6c4.1-2.9,8.2-6.6,9.6-11.6c-0.5-4.1-7.1-3.6-8.2-0.1c-2.4,3.6-9.5,3.6-10.3-1.3
	c-1.3-5.8,2.3-11,3.5-16.5c4.9-14.5,10.6-28.8,16-43.1c3.5-4.8,10.5-5.9,13-11.6c5.9-8.6,14.8-14.9,19.3-24.4
	c3.3-7.4,5.4-16.4,1.5-24C-522.1,82.9-523.8,78.4-527.7,78.8L-527.7,78.8z M-629.6,82.2c-4,3.2-2.5,8.8-2.4,13.2
	c0.1,10.3,2.3,20.7-0.1,30.8c-4,11.4-12.3,20.5-19.3,30.2c-2.3,2.8-6.4,0.4-7-2.6c-2.2-8.8-4.8-17.8-10-25.4
	c-2.1-2.4-4.3-7.9-8.3-5.7c-3.8,2.4-2.5,7.2-1.9,10.9c1.6,12.5,4.7,24.6,7.3,36.9c0.7,4.4-2.3,7.8-4.9,10.9
	c-4.6,5.7-9.1,11.4-13.7,17c-3.3,2.2-6.2,5.1-6.3,9.3c-1.5,5.5-4.5,11.6-2.1,17.3c2.4,5.1,9.3,4.8,13.7,2.7
	c8.8-4.3,14.5-13,19.2-21.3c6.6-11.9,9.2-25.3,12-38.4c5.5-6,12.5-10.6,16.5-17.8c5.7-8.2,11-16.6,15.7-25.4
	c1.3-7.5,0.7-15.3,0.6-22.9c0.2-4-0.3-7.9-2.3-11.5C-624.6,87.5-626.1,82.6-629.6,82.2L-629.6,82.2z M-529.3,87.7
	c4.1,3.2,3.1,9.1,1.8,13.4c-2.1,7.1-6,13.7-11.7,18.5c-0.8,4.3-7.9,1.7-4.8-2c2.5-7.4,5.8-14.6,8.9-21.8
	C-533.5,93-532.2,89.1-529.3,87.7L-529.3,87.7z M-793.7,103.3c-4.9,0.1-10.3,0.3-14.2,3.6c-1.4,4.4,4.6,5.3,7.7,5.3
	c8.7,0.8,17.1,3.2,25.3,6.1c4.2,4.8,10,7.9,14.9,12c1.4,3.6-2.6,5.9-4.8,8.1c-7,7.5-15.1,14.4-19.1,24.1
	c-8.2,15.7-13.9,32.7-23.5,47.7c-2.4,4.3-5.3,9.8-10.9,9.8c-5.8,0.2-11.6-1.6-17.4-1.3c-8.5-0.2-17.2,0.4-25.1,3.7
	c-3.3,2.2-3.8,6.4-5.3,9.8c0,7.8,8.3,13.1,15.5,12.5c10.9,0.6,21.4-3.2,32-5.1c9.7-0.5,19.4,2.1,29.2,0.9
	c15.5-1.3,30.3-7.9,42.5-17.3c8.2-7.2,14.6-16.3,19.9-25.7c6.4-12.2,9.1-26.7,5.1-40.1c-3.1-13.5-8.3-27.5-19.5-36.3
	c-6.7-5.6-15.4-7.5-23.1-11.1C-773.8,105.9-783.5,102.7-793.7,103.3L-793.7,103.3z M-149.4,104.3c-5.4,1.8-6.5,8.1-7.4,13
	c-1.1,3.2-0.7,9.6,4,8.7c4.8-1.8,8.3-6.4,13.6-7.1c2.9-0.9,6.6,1.1,5.5,4.6c-1.3,4.6-5.7,7.1-8.5,10.6c-5.6,5.8-11.2,11.7-17.1,17.3
	c-3.1,1.1-8.4,2.4-7.6,6.7c1.2,3.4,5.7,2.6,8.3,1.6c3.5-1.5,8.6-3.5,11.5,0.1c3.8,5.7,1.4,12.8-0.3,18.7
	c-4.7,13.2-13.1,24.9-23,34.7c-9.5,7.3-22.2,7.8-33.7,7.9c-8.1-0.2-16-1.7-23.9-3.4c-4-0.4-6.3,6.4-2.2,7.9c7.9,4.7,17,7,26,8.3
	c9.5,1,19.3,0.9,28.6-1.3c5.5-2.2,10.6-5.3,15.2-9.1c5.3-5.4,9.5-11.8,14.7-17.3c10.6-12.2,19.4-26.3,23.2-42.1
	c1.1-5.3,1.9-11.4-1.6-16.1c-2-3.6-5.3-6.3-7.2-9.9c-1.2-5.1,3.6-8.9,6.5-12.4c2.9-3.3,6-6.5,8.3-10.2c0.7-4-3.9-6.6-7.4-5.9
	C-132.7,109.3-140.5,103.8-149.4,104.3L-149.4,104.3z M-189.7,114.9c-8,1.2-14.5,6.8-18.6,13.4c-5.5,7.1-10.1,14.9-13.1,23.4
	c-0.6,5.6,4.8,9.1,8.8,11.9c6.7,4.6,16,3.5,22.4-1.2c4.7-2.6,9.7-5.8,11.5-11.2c0.5-4.6-5.7-4.1-6.9-0.6c-3.6,2.6-8.1,3.6-12.3,4.5
	c-4.3,0-5.3-6.2-1.4-7.8c3.4-2.3,7.4-3.8,10-7.1c3.6-3.6,7.5-7.1,10.1-11.4c2.3-4.9,0.6-12.4-5.3-13.6
	C-186.4,114.7-188.1,114.7-189.7,114.9L-189.7,114.9z M-232,123c-7.1,5.9-10.5,15.4-18.7,20.2c-9.5,7.5-19.2,14.7-29.6,20.8
	c-4,1.3-7.7-3.9-5.6-7.3c2.3-7.3,7.8-13.5,8.9-21.3c-0.2-4.5-7.3-4.2-8.1-0.1c-3,7.5-7.1,14.6-9.6,22.2c-2.9,8.1,6.6,17.5,14.6,14
	c6.9-2.5,12.8-7,18.8-11.1c3.9-4.5,5.4-4.1,7.1,0.5c-1,3.7-3.7,8.1-1,11.6c3,4.9,10,6.1,14.9,3.7c3.7-0.2,7.2-5.4,3.8-8.2
	c-3.2-2.7-5.1-7.4-3.1-11.4c2.8-10.5,7.4-20.5,9.9-31.1C-229.6,124.4-230.4,122.4-232,123L-232,123z M-940.9,123.6
	c-11.4,0.9-22.6,3-33.8,4.8c-3.9,2.4,0.2,8.4,4.1,6.8c9.3-0.4,18.7-1.1,28-0.8c7.8,0.3,15.2,3.2,21.3,8.1c5.4,4,10.2,8.6,15.5,12.7
	c2.6,3.1-0.2,7.3-2.9,9.3c-9.1,8.2-16.3,18.4-25.4,26.7c-14.9,18.6-33.8,33.5-52.8,47.7c-5.5,3.4-12.5,3.9-18.6,2
	c-14.1-2.3-28.4-3.4-42.7-3.5c-5-0.1-10.3,2-13,6.5c-2.3,3-3,6.8-0.8,10c1.9,4.2,5.6,8,10.4,8.3c10.6,2.2,21.6,5.1,32.5,3.2
	c9.6-2.4,18.7-9,29-7.1c13.6,1.9,27.6,4.2,41.3,1.4c9.9-1.7,19.8-3.6,29.7-5.1c8.3-2.6,14.3-9.5,20.6-15.1
	c6-5.3,11.1-11.5,16.2-17.6c3-3.9,3-9.2,4.2-13.8c2.4-13.3,3.3-27.3,0-40.6c-1.7-5.2-4.4-11.5-0.7-16.5c3.1-4.8,8.5-7.9,10.6-13.3
	c0.7-3.9-5-5.6-7.2-2.7c-4.6,3-8,9-14.2,8.6c-5.6-1.1-9.7-5.6-14.9-7.8C-915.7,129.6-927.7,122.8-940.9,123.6L-940.9,123.6z
	 M-189.1,124.4c3.2,2.9-0.1,7.6-3.4,8.6c-2.8,1.9-4.9,5.3-8.6,5.5c-3.2-2.4-0.4-6.8,2.3-8.3c2.8-2.4,5.4-5.5,9.2-6.2L-189.1,124.4z
	 M-404.9,133.2c-9.6,0.6-17.3,7.1-24.3,13c-14.8,12.6-25.8,28.9-37.6,44.2c-8.2,14.7-13.5,30.9-17.4,47.2c-2,7.3-4.2,14.9-9.5,20.5
	c-4.4,5.1-10.2,9.4-16.8,11c-4.6,0.3-6.3-4.6-5-8.3c0.2-4.3-5.5-5.5-7.7-2.2c-2.4,4.1-6.4,7.7-6.3,12.8c0.2,4.8,4.9,7.9,9,9.3
	c9.4,2.8,19-1.7,26.9-6.6c7.1-4.3,13.1-10.1,18.3-16.5c3.1-4.8,5.2-10.3,9-14.7c5.2-7.4,5.8-16.7,8.6-25c2.7-8.5,5.3-16.9,7.8-25.4
	c6-16,16.6-29.8,28.5-42c3.9-3.7,8-7.7,13-9.6c2.9-0.3,8.3-0.8,7.4-5C-401.4,134.3-403.1,132.9-404.9,133.2L-404.9,133.2z
	 M-375.6,149.6c-4.4,1.9-8.4,5.2-10.4,9.7c-2.8,4.4-5.8,8.8-8.3,13.5c-3.3,2.4,0.5,6.6,3.5,7c4,1.9,7.7,4.9,12.4,4.9
	c9.3,1.2,18.6-1.6,26.9-5.6c4.7-0.1,3.8,6.2,2.4,9c-3.3,12.3-5.9,24.9-8.1,37.4c-0.6,6.1-1.8,12.8,0.9,18.5c2.2,3.7,7.5,1.5,8.8-1.7
	c3.6-7.1,5.3-14.9,6.1-22.7c1.5-12.2,3.7-24.3,5.8-36.5c2-10.7,4.3-21.3,7.2-31.8c0.5-4.2-4.3-7.5-8.1-6.5
	c-3.9-0.3-5.7-0.6-10.2-2.8C-350.8,143.2-367.2,143.3-375.6,149.6L-375.6,149.6z M-750.2,141.8c6.3,4,7.1,12.1,10.2,18.3
	c4,9.6,4.6,21-0.2,30.5c-1.6,5.3-2.7,10.9-6.6,15.1c-6,8.7-14.5,17-25.4,18.5c-7.8,1.5-15.8,1.5-23.6,1c-4-0.9-4.1-7.2-0.5-8.8
	c5.8-4.3,7.9-11.6,11.8-17.4c4.3-7,8.3-14.4,10.2-22.5c3.3-9.4,7.5-18.6,13.6-26.5c2.7-3.2,5.8-6.4,9.7-8.1h0.4L-750.2,141.8z
	 M-354.9,151.2c4.6,0.5,8.9,2.1,13.3,3.5c-0.1,6.7-6.3,10.7-10.9,14.5c-7.5,6-17.6,8.3-27.1,7.3c-2.9-0.5-5.6-3.6-4.1-6.5
	c1.8-4.4,5.8-7.3,9-10.7C-369.4,154.4-362.3,150.9-354.9,151.2L-354.9,151.2z M-505,158.3c-3.8,0.3-7.7-0.2-11.5,0.4
	c-4,0.8-5.1,5.1-7.7,7.6c-6.1,7.4-13.6,15.1-14.3,25.2c-0.6,4.8,3.9,9.1,8.6,8.8c5.6-0.5,10.7-3.4,15.9-5.5
	c3.4-1.2,6.6-3.9,10.4-3.8c5.3,1,7.9,7.5,13.6,7.6c4.7,0.3,8.8-2.8,12.1-5.7c3.1-2.6-0.3-7.8-3.8-5.4c-2.7,1.4-6.5,3.7-8.9,0.5
	c-2.9-3.7-0.3-8.4,0.7-12.4c1.6-4.2,2.4-8.8,4.6-12.8c1.7-4.6-4.6-4.1-7.3-4.2C-496.9,158.4-501,158.3-505,158.3L-505,158.3z
	 M-600.7,161.5c-5,0.2-8.9,5.1-8.7,10c-1.3,7.1-6.2,13-11.9,17.1c-2.9,1.9-2.8,7.4,1.5,6.8c4.2-0.9,6.5-5,9.5-7.6
	c5.8-6.3,10.8-13.5,13.3-21.7C-596.8,163.9-598.2,161-600.7,161.5L-600.7,161.5z M-500.2,166.1c3.6,1.3,4.1,7,0.9,9.1
	c-6.7,7.7-16.6,11-25.3,15.8c-3.5,1.6-7.7-3.4-4.9-6.3c3.7-5.9,9.1-10.5,14.1-15.2C-511,166.5-505.4,165.6-500.2,166.1L-500.2,166.1
	z M-897.8,170.5c3.9,3.2,2.1,8.8,1.6,13.1c-1.7,13.6-5.5,26.9-11.4,39.3c-2.6,3.1-5.4,6.1-6.2,10.1c-3.9,8-13,11.4-21.2,13.3
	c-9.2,2-18.7,3.5-28,1.9c-3.7-1-8.3,0.1-11.4-2.3c-1.7-3.1,2.2-5.4,4.3-6.8c16.3-13.5,32.4-27.3,46.3-43.3
	c7.8-8.6,15.5-17.3,24.2-25C-898.9,170.7-898.3,170.4-897.8,170.5L-897.8,170.5z M-627.3,174.8c-2.8,2-4.9,5.1-7.1,7.8
	c-6.6,8.9-11.1,19.3-14.4,29.8c-1.2,5.4,0.6,11.7,5.6,14.5c4.5,3.2,10.2,4.2,15.7,3.9c4.2-1.6,2.7-7.4,0-9.7
	c-4-4.8-7.5-10.8-6.3-17.3c0.8-9.7,6.2-18.2,8.5-27.5C-625.4,175.4-626.2,174.4-627.3,174.8L-627.3,174.8z M-671.8,188.4
	c-0.7,8.3-3.7,16.3-8.2,23.3c-3,2.5-8.5-1.6-5.9-5.1c2.9-5.8,6.6-11.3,10.8-16.2C-674.2,189.6-673.1,188-671.8,188.4L-671.8,188.4z
	 M-1046,247.4c8.3,1.3,17-0.9,25,2.1c3.1-0.6,8.2,4,3.9,6c-4.8,1.7-9.9,0.4-14.9,0.3c-5.8-0.6-11.9-1.1-17.1-3.8
	C-1050.8,250.1-1048.2,247.1-1046,247.4L-1046,247.4z"/>
<path id="path2519" d="M254-100.7c2-5.3,3.7-50,3.7-99.4c0-118.7,4.2-124.7,42.3-60.9c27.6,46.3,35.4,57.4,38.1,54.5
	c4.2-4.5-4.7-117.3-9.4-118.9c-12.1-4-2.8-9.7,14.5-8.8c17.5,0.9,19,1.8,16,9.8c-3.8,10.5-1.5,129,2.8,140.6
	c2.3,6.2,11.3-7,38.6-56.6c26.6-48.3,38.1-65.3,45.5-67.1c5.4-1.4,11.9-1.2,14.3,0.3c2.9,1.8,4.5,34.7,4.5,94.6
	c0,77.3,1.1,93.5,6.9,102.4l6.9,10.5h-26.3c-25.3,0-26.1-0.3-21.6-8.9c5.7-10.7,5.8-153.7,0.1-159.4c-4.9-4.9-18.7,17-51.2,82
	c-14.3,28.6-27.8,52-29.8,52s-4.9-3-6.3-6.6c-5.7-15-68.7-113.1-72.5-113.1c-2.6,0-3.1,24.6-1.3,67.4c2.4,57.6,4.1,69,11.4,78.9
	c4.7,6.4,8.5,12.6,8.5,13.9c0,1.3-8.9,2.3-19.7,2.3C251.3-91.1,250.5-91.6,254-100.7z M764.5-97.6c0-0.6,2.9-6.6,6.4-13.3
	c10-19.2,8.1-51.9-4.2-73.5l-10.6-18.5l13.8,2.9c7.6,1.6,16.5,5.5,19.8,8.6c5,4.7,7.7,4.6,16.2-1c14-9.1,32.5-1.4,30.5,12.7
	c-1.7,12.1-16.1,15.2-23.5,5c-3.5-4.7-7.1-6.2-9.4-3.7c-4.9,5.3-9.5,70.3-5,70.3c1.9,0,6.7-5,10.7-11.1s8.1-10.2,9.2-9.1
	c3.5,3.5-7.9,23.9-15,26.8C796.7-98.7,764.5-95.5,764.5-97.6z M567.4-110.8c-8.9-10.8-10.6-59.4-2.4-71.9
	c7.3-11.2,35.7-22.8,41.2-16.9c10.5,11.3,9.1,23.4-4.3,35.9c-7.5,7-15.6,12.7-18.1,12.7s0.8-4.9,7.2-10.8
	c11.5-10.7,12.9-19.2,3.5-22.4c-2.6-0.9-7.9,3.1-11.7,8.9c-5.4,8.2-6.1,14.9-3.3,31.3l3.6,20.8l16.8-0.6l16.8-0.6L604-114.1
	C589.2-102.3,575.5-101.1,567.4-110.8z M676.4-112.9c-6.4-7.1-8.1-15.5-8.1-38.9c0-26.3,1.3-30.9,10.2-38.1
	c21.3-17.2,43.3-13.9,43.3,6.6c0,5.2-4.5,13.6-9.9,18.7c-13.6,12.7-19.6,11.8-7.4-1.2c5.7-6,8.8-13.3,7.3-17.1
	c-7.3-19.1-24.2,4.7-24.2,34.1c0,22.8,5.1,32,18,32c9.5,0,10.1,6.7,0.9,10.2C694.1-101.8,684.7-103.8,676.4-112.9z"/>
<path id="path2541" d="M597.7-170.8c-0.7,0.6-1.4,1.1-2.1,1.6c-0.1,0.1-0.2,0.2-0.3,0.2c-1.2,0.7-2.3,1.3-3.5,2
	c-0.1,0.1-0.4,0.2-0.3,0.2c6.1-3.5,1.3-0.7-0.8,0.5c6.1-3.5,1.3-0.8-0.5,0.3c-1,0.6,3.9-2.2,2.9-1.7c-1.2,0.7-2.6,1.6-4,2.3
	c-0.1,0.1-0.4,0.2-0.3,0.2c0.9-0.5,3.7-2.2,2.8-1.6c-1.5,0.8-3,1.9-4.6,2.6c-0.8,0.4-1.6,0.9-2.5,1.2c-0.6,0.3-1.3,0.6-1.9,0.9
	c-0.3,0.1-0.7,0.2-1,0.4l-0.1,0.1c0,0,0,0-0.1-0.1c0-0.1-0.1-0.3-0.1-0.4c0-0.1,0.8-0.9,0.9-1c0.5-0.5,1.1-1,1.7-1.4
	c0.6-0.4,1.2-0.8,1.8-1.2c0.7-0.6,1.5-1.1,2.1-1.8c0.4-0.4,0.8-0.8,1.3-1.2c7.3-4.2,1.9-1.1,0.4-0.2c-0.1,0.1,0.2-0.2,0.4-0.3
	c1.1-0.7,2.3-1.3,3.4-1.9c1-0.6-2,1.1-3,1.7c1.3-1,2.7-2.1,4.4-2.3c0.3-0.1,0.5,0,0.8,0s0.6-0.2,0.8-0.3c0.5-0.1,1.2-0.3,0.9,0.5
	c-0.3,0.4-0.6,0.9-1,1.2c-1.2,1-2.4,1.5-3.8,2.3c-0.2,0.1-0.7,0.4-0.5,0.3c1-0.6,1.9-1.1,2.9-1.7c-9.6,5.5-0.4,0.3-0.7,0.4
	c-1.2,0.7-2.3,1.3-3.5,2c-0.1,0.1-0.4,0.3-0.3,0.2c2.9-1.7,3.8-2.2,2.6-1.4c-0.9-0.1-2.7,1.8-4.1,2.2c-0.3,0.1-0.6,0.1-0.9,0.3
	c-0.5,0.1-1,0.2-1.5,0.4c-2.1,0.9,1.5-1.2,2.8-1.9c0.1,0,0.2,0,0.3-0.1c0.1,0,1.4-0.7,0.6-0.3c-5.1,3-3.2,1.9-2.1,1.1
	c2-1.3,7.2-4.2,1.2-0.8c-0.1,0.1,0.3-0.2,0.4-0.2c0.3-0.2,0.4-0.3,0.7-0.5c1.4-1,2.9-1.7,4.4-2.6c0.1-0.1,0.4-0.3,0.3-0.2
	c-0.9,0.5-1.9,1.1-2.8,1.6c0.1,0,0.9-0.9,0.8-0.6c-0.4,0.1-0.7,0.2-1.1,0.4c-0.1,0-0.2,0.1-0.3,0.1c-0.2,0.1-0.7,0.4-0.6,0.3
	c1-0.5,1.9-1.1,2.9-1.6c0.1-0.1-0.2,0.1-0.3,0.2c-1.2,0.7-2.3,1.3-3.5,2c-0.7,0.4-1.4,0.8-2.2,1.1c-0.7,0.3-1.3,0.5-2,0.9
	c-1.2,0.6-2.8,1.8,2.5-1.5c0,0-0.3-0.2,0.2-0.2c0.8,0,1.6,0.1,2.4,0c1-0.2,1.9-0.8,2.8-1.2c-5,2.8-2.8,1.7-1.8,0.9
	c0.3-0.3,0.6-0.5,0.9-0.8c0.3-0.6,0.3-0.4-0.1-0.2c-0.1,0-0.2,0-0.2,0.1c-0.3,0.1-0.2,0.1-0.5,0.3c-0.1,0-0.3,0.2-0.3,0.1
	c1-0.6,3.9-2.3,2.9-1.7c-1.1,0.7-2.3,1.3-3.4,2c-0.5,0.2-1,0.5-1.5,0.7c-0.1,0.1-0.2,0.1-0.3,0.2c-0.2,0.1-0.8,0.4-0.6,0.3
	c5.2-3,3.4-2,2.3-1.3c-0.7,0.4-1.3,0.9-1.9,1.4l-3.4,1.3c0.7-0.4,1.3-1,1.9-1.4c1.6-1,3.2-2,4.9-2.8c0.5-0.2,1-0.5,1.5-0.7
	c-1,0.6-3.9,2.3-2.9,1.7c1.3-0.7,2.9-2,4.5-2.4c0.7,0,0.8,0.4,0.6,1c-1.3,1.7-3.7,2.5-5.4,3.6c-0.9,0.5-1.9,1-2.9,1.2
	c-0.8,0.1-1.7,0.1-2.5,0c-0.3-0.1-0.3,0-0.5-0.3c0-0.1-0.1-0.2-0.1-0.2c1.3-0.8,2.5-1.5,3.8-2.2c0.7-0.3,1.3-0.6,2-0.8
	c0.8-0.3,1.5-0.7,2.2-1.1c-0.9,0.5-1.9,1.1-2.8,1.6c-0.1,0.1,0.2-0.1,0.3-0.2c1.5-0.8,2.8-1.8,4.3-2.3c0.4-0.2,0.9-0.3,1.3-0.1
	c0.6,0.6-0.1,0.8-0.6,1.2c-1.1,0.7-2.3,1.4-3.4,2.1c-0.1,0.1-0.5,0.3-0.3,0.2c0.9-0.6,1.9-1.1,2.8-1.7c0.1-0.1-0.2,0.1-0.3,0.2
	c-0.8,0.5,0.2-0.1-0.6,0.4c-0.2,0.2-0.5,0.3-0.7,0.5c-2,1.3-7.2,4.1-1.2,0.7c0.1-0.1-0.2,0.2-0.4,0.3c-1.6,1.1-3.3,2.4-5.2,2.8
	c-2-0.2,1.9-2.2,3.1-2.6c0.5-0.2,1-0.3,1.5-0.4c1.4-0.4,4-1.9-1.4,1.1c1.5-0.8-0.4,0.2,3.7-2.2c0.1-0.1,0.4-0.2,0.3-0.2
	c-0.9,0.5-3.7,2.2-2.8,1.6c0.6-0.3,7.7-4.5,0.7-0.4c1.1-0.7,2.3-1.3,3.4-2c0.2-0.1,0.7-0.4,0.5-0.3c-1,0.6-1.9,1.1-2.9,1.7
	c-0.1,0,0.2-0.1,0.2-0.1c0.1-0.1,0.1-0.1,0.2-0.2c0.2-0.1,0.5-0.3,0.6-0.5s0.2-0.4,0.4-0.6c0.2-0.1,0.3,0.1,0.2,0.1
	c-0.2,0.1-0.5,0.1-0.7,0.2c-0.6,0.2-1.1,0.2-1.7,0.3c-0.2,0-0.3,0.1-0.4,0.1c-0.1,0-0.3,0.1-0.2,0.1c5.3-3.1,3.6-2.2,2.6-1.5
	c-1.1,0.7-2.3,1.3-3.3,2c-1,0.6,2-1.2,3-1.7c0.1,0-0.1,0.1-0.2,0.1c-0.1,0-0.1,0.1-0.2,0.1c-1.1,0.7-2.3,1.3-3.3,2
	c-0.9,0.6,2-1.2,3-1.7c-0.2,0.1-0.4,0.3-0.6,0.5c-0.3,0.2-0.6,0.3-0.7,0.6c-0.6,0.7-1.4,1.2-2.1,1.8c-0.1,0.1-0.5,0.4-0.6,0.5
	c-0.4,0.3-0.8,0.4-1.1,0.7c-0.6,0.4-1.2,0.8-1.7,1.4c-0.1,0.1-0.8,0.9-0.9,0.9c-0.1-0.1-0.2-0.2-0.2-0.3c0,0-0.1,0,0-0.1
	s1-0.3,1.1-0.4c0.6-0.3,1.3-0.6,1.9-0.9c0.8-0.4,1.6-0.8,2.5-1.2c0.5-0.2,0.4-0.2,0.8-0.4c0.1-0.1,0.5-0.3,0.4-0.2
	c-6.1,3.5-1.1,0.6,1-0.6c0.1-0.1,0.2-0.1,0.3-0.2c0.1,0,0.3-0.2,0.3-0.1c-1,0.6-3.9,2.2-2.9,1.7c11.4-6.5-7.4,4.2,4-2.3
	c0.1,0,0.4-0.2,0.3-0.1c-1,0.6-3.8,2.2-2.9,1.7c1.2-0.6,2.3-1.3,3.4-2c0.1-0.1,0.4-0.2,0.3-0.2c-0.9,0.6-1.9,1.1-2.8,1.6
	c-0.1,0.1,0.2-0.1,0.4-0.2c0.7-0.5,1.4-1,2.1-1.6L597.7-170.8z"/>
<path id="path2551" d="M587.6-165.7c0.3-0.2,0.7-0.4,1-0.6l0.3-0.1c0.2-0.1,0.5-0.2,0.7-0.3c-0.2,0.1-0.4,0.2-0.6,0.3l0,0
	c0,0,0,0-0.1,0h-0.1c-0.1,0-0.2,0.1-0.3,0.1c-0.3,0.1-0.5,0.2-0.8,0.3C587.8-165.9,587.6-165.8,587.6-165.7c0.2-0.2,0.3-0.2,0.4-0.3
	c-0.4,0.2-0.8,0.5-1.3,0.7c0.1,0-0.1,0.1-0.1,0c0.2-0.1,0.4-0.3,0.6-0.4h0.1C587.4-165.7,587.5-165.7,587.6-165.7
	c0.6-0.2,1.2-0.4,1.8-0.5c0.2-0.1,0.4-0.1,0.6-0.2c0,0,0.1-0.1,0.1,0c-0.5,0.3-0.7,0.4-0.5,0.3c0,0,0,0,0,0.1l0,0h-0.1
	c-0.1,0,0,0-0.1,0l0.5-0.4c0.1,0,0,0,0.1,0s0.2-0.1,0.2,0.1c-0.2,0.1-0.2,0.1-0.6,0.4h-0.1c-0.2,0.1-0.4,0.1-0.5,0.2
	c-0.6,0.2-1.2,0.4-1.7,0.5c-0.1,0-0.2,0.1-0.4,0.1h-0.1c0.3-0.3,0.3-0.3,0.6-0.4c0.1-0.1,0.3-0.1,0.4-0.2
	C588-165.8,588.1-165.9,587.6-165.7c0.2,0,0.5-0.2,0.7-0.3c0.1-0.1,0.2-0.1,0.4-0.2c0.2-0.1,0.4-0.2,0.6-0.2c0.1,0,0.3-0.1,0.5-0.1
	c0,0,0.2,0,0.1,0.1c-0.2,0.1-0.4,0.2-0.6,0.3c-0.2,0.1-0.5,0.1-0.7,0.2c-0.1,0-0.1,0-0.2,0.1c-0.1,0-0.2,0.1-0.2,0.1
	c0.1-0.1,0.3-0.2,0.4-0.2c0.1,0-0.2,0.1-0.2,0.1s0,0-0.1,0L587.6-165.7z"/>
<path id="path2553" d="M577.3-171.9c0.1,0.1,0.1,0.1,0.1,0.2c0.2,0.3,0.3,0.7,0.4,1.1c0.2,0.7,0.4,1.3,0.6,2
	c0.1,0.2,0.1,0.3,0.2,0.5c0,0,0,0,0,0.1l0,0c-0.2,0.1-0.4,0.2-0.6,0.3c0,0,0,0,0-0.1c0.1-0.1,0.1-0.3,0.1-0.4c0-0.2,0-0.2,0.1-0.5
	c0-0.5,0.1-1,0.1-1.4c0-0.2,0-0.3,0-0.5l0.6-0.3c-0.1,0.2,0,0.3,0,0.5c0,0.5,0,1-0.1,1.4c0,0.3-0.1,0.7-0.2,1
	c-0.2,0.1-0.4,0.2-0.6,0.3l0,0v-0.1c-0.1-0.2-0.1-0.4-0.1-0.5c-0.2-0.7-0.4-1.4-0.6-2c-0.1-0.3-0.2-0.7-0.4-1.1
	c0-0.1-0.1-0.1-0.1-0.2L577.3-171.9z"/>
<path id="path2555" d="M568.8-164c0.1-0.1,0.1-0.2,0.2-0.4c0.1-0.1,0.1-0.3,0.1-0.5s0-0.3,0.1-0.5c0-0.1,0-0.3,0-0.4l0.6-0.3
	c0,0.1,0,0.3,0,0.4c0,0.2,0,0.3-0.1,0.5c0,0.2-0.1,0.3-0.1,0.5c0,0.1-0.1,0.2-0.2,0.4L568.8-164z"/>
<path id="path2559" d="M574.8-161.2c0,0.4,0,0.7,0,1.1c0,0.7,0,1.4,0,2.1c0,0.5,0,1,0,1.6c0,0.2,0,0.4,0,0.6l0,0l-0.6,0.3l0,0
	c0-0.2,0-0.4,0-0.6c0-0.5,0-1.1,0-1.6c0-0.7,0-1.4,0-2.1c0-0.4,0-0.7,0-1.1L574.8-161.2z"/>
<path id="path2563" d="M587.6-165.7c0-0.1,0-0.2,0-0.3l0,0l0,0l0,0c0.5-0.3,0.6-0.5,0.5-0.3v0.1l-0.6,0.3v-0.1
	c0-0.3,0.6-0.6,0.7-0.3c0,0.1,0.1,0.2,0.1,0.3L587.6-165.7z"/>
<path id="path2565" d="M590.6-169.9c0.1,0,0.1,0,0.2,0l0,0l0,0l0,0c0.1,0,0.1-0.1,0.2-0.1c0.1,0,0,0,0.1-0.1c0,0,0.1,0,0,0
	c-0.3,0.2-0.2,0.1-0.1,0c0.1-0.1,0.2-0.1,0.3-0.2c0.1,0-0.1,0.1-0.2,0.1l0,0c0.1-0.1,0.2-0.1,0.3-0.2c0.1,0,0.1,0-0.1,0.1l0,0
	c0,0,0.1,0,0.1-0.1c0.1,0,0.1-0.1,0.2-0.1c0.1-0.1,0.2-0.1,0.3-0.2l0,0l0,0c-0.1,0-0.1,0.1-0.2,0.1l0,0c0.8-0.4-0.1,0.1,0.1,0
	c0.1,0,0.2-0.1,0.2-0.1c-0.4,0.2-0.2,0.1-0.1,0c0.1,0,0.2-0.1,0.2-0.1l0,0l0,0l0,0c-0.3,0.2-0.2,0.1-0.2,0.1
	c0.1-0.1,0.2-0.1,0.3-0.2l0,0l0,0c-0.1,0-0.1,0.1-0.2,0.1l0,0c0.8-0.4-0.1,0,0,0s0.2-0.1,0.2-0.1c0.1,0-0.1,0.1-0.2,0.1l0,0l0.1-0.1
	c0.1-0.1,0.5-0.3,0,0l0,0l0,0v-0.1l0,0l0,0l0,0l0,0H592c0.3-0.3,0.2-0.1,0.1-0.1c-0.1,0-0.2,0.1-0.2,0.1l0,0h-0.1c0,0-0.1,0-0.1,0.1
	c-0.1,0-0.3,0.2,0.1-0.1l-0.1,0.1c-0.1,0.1-0.2,0.1-0.3,0.2c-0.1,0,0.1-0.1,0.2-0.1c-0.1,0.1-0.2,0.1-0.3,0.2h-0.1h-0.1H591h-0.1
	c0,0-0.1,0,0,0c0.4-0.2,0,0-0.1,0.1s0.1-0.1,0.1-0.1l0,0c0,0-0.1,0-0.1,0.1c-0.1,0.1-0.2,0.1-0.3,0.2c0.1,0,0.3-0.1,0.2-0.1
	s-0.2,0.1-0.2,0.1l0,0c0.3-0.2,0.2-0.1,0.2-0.1s-0.1,0-0.1,0.1c0,0,0,0.1-0.1,0.1l-0.1,0.1l0,0l0,0
	C590.6-169.8,590.6-169.7,590.6-169.9c0.1,0,0.2,0,0.2-0.1c0.1-0.1,0.3-0.2,0.4-0.2c0,0,0.1,0,0,0s-0.1,0.1-0.2,0.1
	c0.1-0.1,0.3-0.1,0.4-0.2l0,0c-0.1,0-0.1,0.1-0.2,0.1l0,0c0.1,0,0.5-0.3,0,0c0,0,0.1,0,0.1-0.1c0,0,0,0,0-0.1s-0.3,0.1,0.2-0.1l0,0
	c0,0,0,0,0,0.1s0,0.2,0,0.3l0,0l0,0l0,0c-0.1,0-0.1,0.1-0.2,0.1l0,0l0,0v-0.1v-0.1v-0.1v-0.1c0,0,0-0.1,0.1-0.1c0,0,0-0.1,0.1-0.1
	c0.1-0.1,0.2-0.2,0.3-0.2l0,0l0.1,0.1c0,0.1,0,0.1,0.1,0.2c0,0,0,0.1,0.1,0.1c-0.3,0.2-0.2,0.2-0.2,0.1v-0.1c0-0.1,0-0.1,0-0.2v-0.1
	c0.1-0.1,0.2-0.2,0.3-0.1c0,0,0,0.1,0.1,0.1l0,0l0,0c-0.3,0.2-0.2,0.2-0.2,0.1v-0.1c0,0,0-0.1,0.1-0.1c0,0,0-0.1,0.1-0.1l0,0
	l0.2-0.1l0,0c0,0,0,0.1-0.1,0.1l0,0c0,0,0,0,0,0.1v0.1c-0.1,0.1-0.2,0.2-0.3,0.1c0,0,0-0.1-0.1-0.1l0,0l0,0c0.3-0.2,0.3-0.2,0.2-0.1
	v0.1c0,0.1,0,0.1,0,0.2v0.1l0,0c-0.1,0-0.1,0.1-0.2,0.1c-0.1,0-0.1-0.1-0.1-0.1c0-0.1,0-0.1-0.1-0.2c0,0,0-0.1-0.1-0.1l0,0l0,0
	c0.4-0.2,0.2-0.1,0.2-0.1s0,0.1-0.1,0.1c0,0,0,0.1-0.1,0.1v0.1v0.1v0.1v0.1l0,0c-0.1,0.1-0.2,0.2-0.2,0.1c0-0.1,0-0.2,0-0.3v-0.1
	c0.1,0,0.1-0.1,0.2-0.1l0,0v0.1l0,0l0,0c-0.3,0.2-0.3,0.2,0,0l0,0l0,0c-0.2,0.1-0.2,0.1-0.3,0.1s-0.3,0.2,0,0
	c-0.1,0-0.2,0.1-0.2,0.1l0,0c0.1,0,0.1-0.1,0.2-0.1l0,0c-0.1,0.1,0,0-0.1,0.1c-0.1,0-0.1,0.1-0.1,0.1s0,0-0.1,0l0,0
	c-0.1,0.1,0,0-0.2,0.1l0,0l0,0C590.6-169.8,590.7-169.8,590.6-169.9C590.7-169.9,590.7-169.9,590.6-169.9
	C590.7-169.9,590.7-169.9,590.6-169.9L590.6-169.9c0.1-0.1,0.1-0.1,0.1-0.2l0.1-0.1c0.1-0.1,0.2-0.1,0.3-0.2l0,0
	c-0.1,0-0.3,0.1-0.2,0.1s0.2-0.1,0.2-0.1c-0.4,0.2-0.2,0.1-0.1,0c0,0,0.1,0,0.1-0.1c0.1-0.1,0.2-0.1,0.3-0.2l0,0
	c0.1-0.1,0,0-0.2,0.1l0,0c0.1-0.1,0.2-0.1,0.3-0.2h0.1h0.1c0,0,0.1,0,0.1-0.1h0.1c0.1,0,0.3-0.1-0.1,0.1c0.1,0,0.2-0.1,0.2-0.1
	c0.1,0-0.1,0.1-0.2,0.1l0,0c0,0,0,0,0.1,0l0.1-0.1c0.1-0.1,0.2-0.1,0.3-0.2c0,0,0.1,0,0.1-0.1c0.1,0,0.3-0.1-0.1,0.1l0,0l0,0
	c0.1-0.1,0.1-0.1,0.3-0.2h0.1h0.1l0,0l0,0l0,0l0,0c-0.1,0-0.2,0.1-0.2,0.1c-0.1,0,0.1-0.1,0.2-0.1l0,0c0,0-0.1,0-0.1,0.1
	c-0.1,0.1,0.2-0.1-0.2,0.2c-0.1,0,0.2-0.1,0.2-0.1c-0.8,0.5,0.1-0.1-0.1,0c-0.1,0-0.2,0.1-0.2,0.1h-0.1l0,0c0.1,0,0.1-0.1,0.2-0.1
	l0,0c-0.1,0-0.2,0.1-0.2,0.1l0,0l0,0c0.1,0,0.1-0.1,0.2-0.1c-0.1,0.1-0.2,0.1-0.3,0.2c0.1,0,0.1-0.1,0.2-0.1l0,0
	c-0.1,0-0.2,0.1-0.2,0.1c-0.1,0,0.1-0.1,0.2-0.1c0,0-0.1,0,0,0c-0.1,0-0.2,0.1-0.2,0.1l0,0c-0.1,0-0.3,0.2,0.2-0.1c0,0-0.1,0,0,0
	c-0.1,0-0.1,0.1-0.2,0.1c-0.1,0.1-0.3,0.2-0.4,0.2c-0.1,0.1-0.1,0,0.2-0.1l0,0l0,0l0,0c-0.1,0.1-0.5,0.3-0.1,0l0,0c-0.1,0,0,0-0.1,0
	c-0.1,0.1-0.3,0.2-0.4,0.3c-0.1,0-0.2,0.1-0.3,0.1H591h-0.1L590.6-169.9z"/>
<path id="path2567" d="M592.7-171C592.6-170.9,592.3-170.8,592.7-171c-0.1,0.1-0.3,0.2-0.4,0.3c-0.1,0.1-0.2,0.1-0.2,0.2
	c-0.1,0-0.1,0.1-0.1,0.2l-0.1,0.1l-0.1,0.1l-0.2,0.1l0.1-0.1l0.1-0.1c0-0.1,0.1-0.1,0.1-0.2c0.1-0.1,0.1-0.1,0.2-0.2
	c0.1-0.1,0.2-0.2,0.3-0.2C592.5-170.9,592.6-171,592.7-171c0.1-0.1,0.1-0.1,0.2-0.2L592.7-171z"/>
<path id="path2583" d="M592.5-167.9c-0.7,0.1-1.4,0.2-2.1,0.3c-0.6,0.1-1.2,0.3-1.8,0.4c-0.5,0.2-1,0.3-1.6,0.5
	c-0.5,0.1-1.1,0.3-1.6,0.6c-0.3,0.2-0.7,0.2-1.1,0.4l3.1-2.4c0.4-0.1,0.7-0.2,1.1-0.4c0.5-0.2,1.1-0.4,1.6-0.5
	c0.5-0.2,1.1-0.3,1.6-0.4c0.6-0.1,1.2-0.3,1.8-0.4c0.7-0.1,1.5-0.2,2.2-0.3L592.5-167.9z"/>
<path id="path2585" d="M591.7-167.5c-0.7,0.2-1.3,0.5-1.9,0.8c-0.6,0.2-1.2,0.4-1.8,0.6c-0.1,0-0.2,0-0.3,0.1
	c-0.1,0-0.2,0.1-0.2,0.1c-0.1,0-0.2,0-0.3,0.1c-0.3,0.1-0.5,0.1-0.8,0.2c-0.5,0.2-1,0.4-1.6,0.6c-0.3,0.2-0.2,0.1-0.5,0.2l3.1-2.4
	c0.4-0.2,0.2-0.1,0.5-0.2c0.5-0.2,1.1-0.4,1.6-0.5s1.1-0.3,1.6-0.4c0.6-0.2,1.2-0.4,1.7-0.6c0.7-0.3,1.3-0.5,2-0.8L591.7-167.5z"/>
<path id="path2587" d="M590.7-167c-0.1,0-0.1,0-0.2,0c-0.1,0-0.1,0-0.2,0c-0.3,0.1-0.6,0.2-0.9,0.3c-0.2,0.1-0.5,0.2-0.7,0.4
	c0,0-0.1,0.1-0.1,0c0,0,0.2-0.1,0.1-0.1c-0.1,0-0.2,0.1-0.3,0.1s0.1-0.1,0.2-0.1l0,0l0,0l0,0h0.1c0.2,0,0.4-0.1,0.5-0.2
	c0.3-0.1,0.6-0.2,0.9-0.4C590.4-166.9,590.5-166.9,590.7-167c0.2-0.2,0.4-0.3,0.6-0.4l0,0c-0.1,0-0.1,0.1-0.2,0.1l0,0c0,0,0,0-0.1,0
	h-0.1h-0.1c-0.1,0-0.1,0-0.2,0.1c-0.1,0-0.2,0.1-0.2,0.1c-0.2,0.1-0.4,0.1-0.6,0.2c-0.2,0.1-0.6,0.2-0.7,0.2
	c-0.6,0.2-1.1,0.4-1.7,0.6c0,0-0.1,0.1-0.1,0c0,0,0.1-0.1,0.2-0.1h0.1c0.2,0,0.4-0.1,0.6-0.1c0.3-0.1,0.5-0.1,0.7-0.2
	c0.1,0,0.2-0.1,0.3-0.1c0.2-0.1,0.4-0.2,0.6-0.3c0.1,0,0.2-0.1,0.2-0.1c0.2-0.1,0.4-0.2,0.5-0.3c0.1,0,0.2-0.1,0.3-0.1h0.1
	c0,0.1,0,0.1-0.1,0.1l-0.1,0.1l-0.1,0.1c-0.1,0-0.1,0.1-0.2,0.1c-0.1,0.1-0.3,0.2-0.4,0.2c-0.1,0-0.2,0.1-0.3,0.1
	c-0.3,0.1-0.6,0.2-0.9,0.4c-0.4,0.1-0.8,0.3-1.2,0.4l0,0l0,0c0.1-0.1,0.2-0.1,0.3-0.2c0,0,0.1,0,0.1-0.1c0.2-0.1,0.2-0.1,0.4-0.2
	c0.1,0,0.2-0.1,0.3-0.1s0.2-0.1,0.4-0.1c0.5-0.2,0.9-0.3,1.4-0.5C590.5-166.9,590.6-167,590.7-167c0.1-0.1,0.1-0.1,0.2-0.1l0,0
	c0,0,0,0-0.1,0.1C590.8-166.9,590.7-166.9,590.7-167c-0.1,0.2-0.3,0.2-0.4,0.3c-0.1,0.1-0.5,0.2-0.6,0.3c-0.3,0.1-0.7,0.3-1,0.4
	c-0.3,0.1-0.7,0.2-1,0.3c-0.2,0.1-0.3,0.1-0.5,0.2c0,0,0,0-0.1,0c0,0,0,0,0-0.1l0.3-0.2c0.4-0.2,0.3-0.2,0.7-0.4
	c0.5-0.2,1-0.4,1.4-0.6c0,0,0.6-0.3,0.7-0.3c0.2-0.1,0.4-0.2,0.6-0.2h0.1l0,0c0,0,0,0,0,0.1C590.8-167.1,590.8-167.1,590.7-167
	c-0.2,0.1-0.3,0.1-0.4,0.2c-0.5,0.3-0.9,0.5-1.4,0.8c-0.4,0.2-0.8,0.4-1.2,0.6c-0.1,0-0.2,0.1-0.2,0.1c-0.2,0.1-0.1,0.1-0.2,0.1
	c0.1-0.1,0.2-0.1,0.3-0.2c0.1,0,0.2-0.1,0.2-0.1c0.1,0,0.2-0.1,0.3-0.1c0.4-0.1,0.7-0.3,1.1-0.4c0.1,0,0.2-0.1,0.3-0.1
	c0.2-0.1,0.4-0.2,0.7-0.3l0.1-0.1c0,0-0.1,0.1-0.2,0.1l0,0H590c-0.1,0-0.1,0-0.2,0.1c-0.3,0.1-0.5,0.2-0.8,0.3s-0.5,0.2-0.8,0.2
	c-0.1,0-0.2,0.1-0.3,0.1l0,0c0,0,0-0.1,0.1-0.1c0.1-0.1,0.2-0.1,0.3-0.2c0.3-0.2,0.7-0.3,1.1-0.5c0.2-0.1,0.4-0.2,0.7-0.3h0.1h0.1
	c0,0,0,0,0,0.1l-0.1,0.1c-0.1,0.1-0.4,0.3-0.5,0.3c-0.2,0.2-0.5,0.3-0.7,0.5l-0.1,0.1c-0.1,0.1-0.2,0.1-0.3,0.2c0,0,0,0,0-0.1
	l0.1-0.1c0.1,0,0.1-0.1,0.2-0.1c0.1-0.1,0.3-0.2,0.4-0.2c0.3-0.2,0.6-0.3,0.9-0.5c0.2-0.1,0.1,0,0.2-0.1c0,0,0,0-0.1,0
	s-0.1,0-0.2,0.1c-0.1,0-0.2,0.1-0.3,0.1c-0.4,0.1-0.8,0.3-1.2,0.5c-0.3,0.1-0.6,0.3-1,0.4c-0.1,0-0.1,0-0.2,0.1l0,0
	c0.1-0.1,0.3-0.1,0.4-0.2c0.2-0.1,0.3-0.1,0.5-0.2c0.6-0.2,0.7-0.2,1.3-0.5c0.5-0.2,1-0.4,1.5-0.6c0.1,0,0.2-0.1,0.2-0.1
	c-0.2,0.2-0.4,0.2-0.6,0.3c-0.3,0.1-0.7,0.2-1,0.4c-0.4,0.1-0.8,0.3-1.2,0.4c-0.2,0.1-0.4,0.1-0.6,0.1h-0.1c-0.1,0-0.2,0,0.1-0.1
	h0.1c0.1,0,0.1,0,0.2-0.1c0.1,0,0.1-0.1,0.2-0.1c0.1,0,0.2-0.1,0.4-0.1c0.1,0,0.3-0.1,0.4-0.1C589.7-166.6,590.2-166.8,590.7-167
	c1-0.3-0.1,0,0.6-0.2c0,0,0.1-0.1,0.1,0c-0.1,0.2-0.2,0.1-0.3,0.2c-0.1,0-0.1,0-0.2,0.1c-0.6,0.2-1.2,0.4-1.8,0.6
	c-0.2,0.1-0.4,0.2-0.7,0.2l0.2-0.1c0.2-0.1,0.4-0.1,0.6-0.2c0.6-0.2,1.2-0.4,1.8-0.6c0.1,0,0.1,0,0.2-0.1c0,0,0.1-0.1,0.1,0
	c-0.1,0.2-0.1,0.1-0.3,0.2c-0.2,0-0.5,0.2-0.6,0.2c-0.5,0.2-1,0.3-1.5,0.5c-0.3,0.1-0.5,0.2-0.8,0.3c-0.1,0-0.2,0.1-0.2,0.1
	c-0.1,0-0.1,0-0.2,0.1c0,0-0.1,0.1-0.1,0c0.1-0.1,0.2-0.1,0.3-0.2c0.2,0,0.4-0.1,0.6-0.1c0.4-0.1,0.8-0.3,1.1-0.4
	c0.3-0.1,0.7-0.2,1-0.4c0.1,0,0.2-0.1,0.3-0.1s-0.2,0.2-0.2,0.1c-0.5,0.2-1,0.4-1.5,0.6c-0.2,0.1-0.4,0.2-0.7,0.3
	c-0.2,0.1-0.4,0.2-0.6,0.2c-0.2,0.1-0.3,0.1-0.5,0.2l0,0l0,0c0.4-0.1,0.7-0.3,1.1-0.4c0.2-0.1,0.6-0.3,0.8-0.3
	c0.1-0.1,0.3-0.1,0.4-0.1c0.1,0,0.2-0.1,0.3-0.1s0.1-0.1,0.2-0.1h0.1c-0.1,0.1,0,0-0.2,0.1c-0.1,0-0.2,0.1-0.2,0.1
	c-0.3,0.2-0.7,0.4-1,0.6c-0.1,0.1-0.2,0.1-0.3,0.1l-0.1,0.1c0,0,0,0-0.1,0c0,0-0.2,0.1-0.1,0.1l0.1-0.1c0.4-0.3,0.8-0.6,1.3-0.9
	c0,0,0.1,0,0,0c0,0,0,0-0.1,0h-0.1c-0.1,0-0.3,0.1-0.4,0.1c-0.1,0-0.2,0.1-0.3,0.1c-0.2,0.1-0.4,0.2-0.6,0.3c-0.1,0-0.2,0.1-0.3,0.1
	s-0.1,0.1-0.2,0.1c0,0,0.2-0.1,0,0l0,0c0.1,0,0.2,0,0.3-0.1c0.3-0.1,0.5-0.1,0.8-0.2c0.3-0.1,0.6-0.2,0.8-0.3c0.1,0,0.1,0,0.2-0.1
	c0,0,0.1,0,0.2,0c0,0,0,0,0.1,0c-0.1,0-0.2,0.1-0.2,0.1h-0.1c-0.1,0-0.1,0-0.2,0.1c-0.3,0.1-0.5,0.2-0.8,0.3
	c-0.4,0.1-0.7,0.3-1.1,0.4c-0.1,0-0.2,0.1-0.3,0.1s-0.2,0.1-0.3,0.1l0.1-0.1c0,0.1,0,0,0.1-0.1c0.1,0,0.2-0.1,0.2-0.1
	c0.4-0.2,0.8-0.4,1.2-0.5c0.4-0.2,0.5-0.2,0.9-0.5c0.1,0,0.2-0.1,0.2-0.1C590.3-166.8,590.4-166.9,590.7-167
	C590.6-167.1,590.6-167.1,590.7-167C590.7-167.1,590.7-167.1,590.7-167l-0.2-0.1c-0.2,0.1-0.4,0.1-0.5,0.2c-0.2,0.1-0.5,0.2-0.7,0.3
	c-0.5,0.2-1,0.4-1.5,0.7c-0.1,0-0.2,0.1-0.3,0.1l0,0c-0.1,0-0.1,0.1-0.2,0.1c0,0-0.1,0-0.1,0.1l0,0l0,0c0.2-0.1,0.3-0.1,0.5-0.2
	c0.3-0.1,0.6-0.2,1-0.3s0.7-0.3,1.1-0.4c0.5-0.2,0.1-0.1,0.6-0.3l0,0C590.5-166.8,590.6-166.9,590.7-167
	C590.6-166.9,590.6-166.9,590.7-167C590.7-166.9,590.7-166.9,590.7-167C590.6-166.9,590.6-166.9,590.7-167c-0.2,0.1-0.3,0.2-0.4,0.2
	c-0.7,0.2-1.4,0.5-2,0.7c-0.2,0.1-0.3,0.1-0.5,0.2l-0.1,0.1c0-0.1,0.1,0,0.1-0.1l0,0l0,0c0.4-0.1,0.8-0.3,1.1-0.4
	c0.3-0.1,0.6-0.2,0.9-0.4c0.1,0,0.2-0.1,0.3-0.1l0,0c0.1,0,0.1-0.1,0.2-0.1l0.1-0.1c0,0,0.1,0,0.1-0.1c0,0,0,0,0.1,0l0,0l0,0
	c-0.1,0-0.2,0.1-0.2,0.1c-0.2,0.1-0.3,0.2-0.5,0.3c-0.1,0-0.2,0.1-0.2,0.1c-0.2,0.1-0.4,0.2-0.6,0.2c-0.1,0-0.2,0.1-0.3,0.1
	s-0.2,0.1-0.4,0.1c-0.1,0-0.3,0.1-0.4,0.1c-0.1,0-0.4,0.1-0.6,0.1h-0.1h-0.1c0.1-0.1,0.2-0.1,0.2-0.1h0.1c0.5-0.2,1.1-0.4,1.6-0.6
	c0.2-0.1,0.5-0.2,0.7-0.3s0.5-0.2,0.6-0.2s0.2-0.1,0.3-0.1s0.1,0,0.2-0.1c0.1,0,0.2-0.1,0.3-0.1c0,0,0,0,0.1,0c0,0,0.1,0,0,0
	c-0.1,0.1-0.2,0.1-0.2,0.1c-0.2,0.1-0.4,0.2-0.6,0.3c-0.1,0.1-0.2,0.1-0.4,0.2c-0.3,0.2-0.6,0.3-0.9,0.4l-0.4,0.1h-0.1
	c0,0-0.1,0-0.2,0l0,0l0,0c0.1,0,0.2-0.1,0.2-0.1c0.1,0-0.2,0.1-0.2,0.1c0.4-0.2,0.2-0.1,0.3-0.2c0.2-0.1,0.5-0.3,0.7-0.4
	c0.3-0.1,0.6-0.3,0.9-0.3c0.1,0,0.1,0,0.2,0c0.1,0,0.1,0,0.2,0L590.7-167z"/>
<path id="path2848" d="M451.2-538.1c-3-4.9,9.9-16.9,28.5-26.6c15.2-7.9,25.7-18.4,32.1-31.8c20.6-43.9,36.4-71.7,44.6-78.5
	c7.9-6.6,3,6.5-8.5,22.6c-7.4,10.3-10.1,15.6-23.6,45.7c-20.5,46-29.2,58-46.9,64.6C465.1-537.5,452.7-535.6,451.2-538.1
	L451.2-538.1z M741.8-538c-10.9-4.8-14-12.5-17.2-42.6c-2.5-23.5-3.8-27.4-11-33.2c-7.1-5.7-6-7.4,4.1-6.6
	c19,1.6,25.5,13.1,27.3,48.3c0.6,11.8,1.6,22.3,2.3,23.4s3.9,2.5,7.1,3.1c7.1,1.3,21.4-4.7,23-9.6c0.7-2.1,1.6-2.6,2.7-1.5
	c2.6,2.6,0,8.2-5.8,12.5C766.2-538.3,748.8-534.9,741.8-538L741.8-538z M611-541c-2.5-6.6,3.5-11.2,20.2-15.5
	c14.4-3.6,19.2-11.6,41-68.2c7.1-18.3,10.1-24.3,13.8-26.9c1.6-1.1,4.5-5.2,6.5-9.1c5.6-10.8,21.2-30.9,24-30.9
	c1.7,0,0.3,3.2-4.8,10.3c-12.9,18.2-30.8,51.1-30.8,56.7c0,1.6-12.4,33.5-22.3,57.4c-3.4,8.2-7.4,16.2-9,17.8
	c-2.9,3.1-27.4,11-33.9,11C613.7-538.3,611.6-539.5,611-541L611-541z M326.5-547c-2.9-6.5,0.7-11.8,16.2-23.3
	c22-16.5,27.7-25.4,46.5-73.3c7.1-18.2,16.1-32.2,21.5-33.6c4.2-1.1,4.2,1.2,0,7.1c-4.2,5.9-15.8,40.7-20,60.1
	c-6.1,27.9-17.1,44.1-40.7,59.8C337.5-542,329.3-540.9,326.5-547L326.5-547z M556.7-617.9c-7.1-5.7-4.9-10.5,5.2-11.9
	c18.5-2.4,25-8.6,25-23.6c0-9.8-3.8-17-12-22.8c-12.6-9-20.7-10.4-33.6-6.1c-18.5,6.2-27.6,26-19.3,42.1c2.9,5.7,2,8-2.3,5.3
	c-8.1-5-9.5-24.4-2.8-37.8c7.7-15.4,28.1-25,49.5-23.3c22.1,1.7,36.9,12,40.5,28.4c2.3,10.5,1.3,16.7-4.8,29.7
	c-5,10.6-13.2,19.9-19.6,22.3C574.7-612.6,561.8-613.8,556.7-617.9L556.7-617.9z M437.1-619.8c-2.5-3-1.2-7.1,3.9-12.6
	c10.5-11.4,11.7-20.6,3.9-32.1c-7.8-11.5-17.6-16.9-33-18.2c-14.1-1.2-21.9,1.5-32.6,11.3c-10.6,9.7-13.9,17-13.9,30.5
	c0,12.4-1,14.4-4.3,8.4c-3.1-5.8-0.8-21.6,4.3-30.6c13.1-22.7,37.5-33.4,64.9-28.4c17.4,3.2,27.1,9.9,32.2,22.1
	c5.6,13.3,0.8,28.6-13.6,43.5c-4.6,4.8-8.7,8.7-9.1,8.7C439.4-617.4,438.2-618.5,437.1-619.8z M689.9-624.8
	c-4.4-3.3-1.4-5.1,10.8-6.4c13.4-1.4,24.3-5.9,36.1-15c19.2-14.7,19.7-23.5,2.3-40c-12.7-12.1-15.8-13.6-26.5-13.6
	c-12.4,0-19.6,2.9-28.1,11.2c-9.8,9.5-12.6,16.2-12.6,29.9c0,8.9-0.5,10.8-2.9,11.2c-4,0.8-8.4-10-7.2-17.6
	c2.2-13.7,17.3-34.5,29.7-40.9c10.8-5.6,36.3-4.2,47.1,2.6c11.6,7.2,21.5,16.2,24,21.9c2.4,5.3,2.5,7.6,1,15.5
	c-2.1,10.6-10,22.6-17.6,26.8c-2.7,1.5-5.3,3.3-5.8,3.9c-1.9,2.5-19.8,9.4-28.8,11.1C698.4-621.7,693.7-621.9,689.9-624.8
	L689.9-624.8z"/>
</svg>
