<?xml version="1.0" encoding="utf-8"?>
<!-- Generator: Adobe Illustrator 27.7.0, SVG Export Plug-In . SVG Version: 6.00 Build 0)  -->
<svg version="1.1" id="Layer_1" xmlns="http://www.w3.org/2000/svg" xmlns:xlink="http://www.w3.org/1999/xlink" x="0px" y="0px"
	 viewBox="0 0 1088.9 363.1" style="enable-background:new 0 0 1088.9 363.1;" xml:space="preserve">
<path id="path2848" d="M451.2,266.7c-3-4.9,9.9-16.9,28.5-26.6c15.2-7.9,25.7-18.4,32.1-31.8c20.6-43.9,36.4-71.7,44.6-78.5
	c7.9-6.6,3,6.5-8.5,22.6c-7.4,10.3-10.1,15.6-23.6,45.7c-20.5,46-29.2,58-46.9,64.6C465.1,267.3,452.7,269.2,451.2,266.7
	L451.2,266.7z M741.8,266.8c-10.9-4.8-14-12.5-17.2-42.6c-2.5-23.5-3.8-27.4-11-33.2c-7.1-5.7-6-7.4,4.1-6.6
	c19,1.6,25.5,13.1,27.3,48.3c0.6,11.8,1.6,22.3,2.3,23.4s3.9,2.5,7.1,3.1c7.1,1.3,21.4-4.7,23-9.6c0.7-2.1,1.6-2.6,2.7-1.5
	c2.6,2.6,0,8.2-5.8,12.5C766.2,266.5,748.8,269.9,741.8,266.8L741.8,266.8z M611,263.8c-2.5-6.6,3.5-11.2,20.2-15.5
	c14.4-3.6,19.2-11.6,41-68.2c7.1-18.3,10.1-24.3,13.8-26.9c1.6-1.1,4.5-5.2,6.5-9.1c5.6-10.8,21.2-30.9,24-30.9
	c1.7,0,0.3,3.2-4.8,10.3c-12.9,18.2-30.8,51.1-30.8,56.7c0,1.6-12.4,33.5-22.3,57.4c-3.4,8.2-7.4,16.2-9,17.8
	c-2.9,3.1-27.4,11-33.9,11C613.7,266.5,611.6,265.3,611,263.8L611,263.8z M326.5,257.8c-2.9-6.5,0.7-11.8,16.2-23.3
	c22-16.5,27.7-25.4,46.5-73.3c7.1-18.2,16.1-32.2,21.5-33.6c4.2-1.1,4.2,1.2,0,7.1c-4.2,5.9-15.8,40.7-20,60.1
	c-6.1,27.9-17.1,44.1-40.7,59.8C337.5,262.8,329.3,263.9,326.5,257.8L326.5,257.8z M556.7,186.9c-7.1-5.7-4.9-10.5,5.2-11.9
	c18.5-2.4,25-8.6,25-23.6c0-9.8-3.8-17-12-22.8c-12.6-9-20.7-10.4-33.6-6.1c-18.5,6.2-27.6,26-19.3,42.1c2.9,5.7,2,8-2.3,5.3
	c-8.1-5-9.5-24.4-2.8-37.8c7.7-15.4,28.1-25,49.5-23.3c22.1,1.7,36.9,12,40.5,28.4c2.3,10.5,1.3,16.7-4.8,29.7
	c-5,10.6-13.2,19.9-19.6,22.3C574.7,192.2,561.8,191,556.7,186.9L556.7,186.9z M437.1,185c-2.5-3-1.2-7.1,3.9-12.6
	c10.5-11.4,11.7-20.6,3.9-32.1c-7.8-11.5-17.6-16.9-33-18.2c-14.1-1.2-21.9,1.5-32.6,11.3c-10.6,9.7-13.9,17-13.9,30.5
	c0,12.4-1,14.4-4.3,8.4c-3.1-5.8-0.8-21.6,4.3-30.6c13.1-22.7,37.5-33.4,64.9-28.4c17.4,3.2,27.1,9.9,32.2,22.1
	c5.6,13.3,0.8,28.6-13.6,43.5c-4.6,4.8-8.7,8.7-9.1,8.7C439.4,187.4,438.2,186.3,437.1,185z M689.9,180c-4.4-3.3-1.4-5.1,10.8-6.4
	c13.4-1.4,24.3-5.9,36.1-15c19.2-14.7,19.7-23.5,2.3-40c-12.7-12.1-15.8-13.6-26.5-13.6c-12.4,0-19.6,2.9-28.1,11.2
	c-9.8,9.5-12.6,16.2-12.6,29.9c0,8.9-0.5,10.8-2.9,11.2c-4,0.8-8.4-10-7.2-17.6c2.2-13.7,17.3-34.5,29.7-40.9
	c10.8-5.6,36.3-4.2,47.1,2.6c11.6,7.2,21.5,16.2,24,21.9c2.4,5.3,2.5,7.6,1,15.5c-2.1,10.6-10,22.6-17.6,26.8
	c-2.7,1.5-5.3,3.3-5.8,3.9c-1.9,2.5-19.8,9.4-28.8,11.1C698.4,183.1,693.7,182.9,689.9,180L689.9,180z"/>
</svg>
