<?xml version="1.0" encoding="utf-8"?>
<!-- Generator: Adobe Illustrator 27.7.0, SVG Export Plug-In . SVG Version: 6.00 Build 0)  -->
<svg version="1.1" id="Layer_1" xmlns="http://www.w3.org/2000/svg" xmlns:xlink="http://www.w3.org/1999/xlink" x="0px" y="0px"
	 viewBox="0 0 1088.9 363.1" style="enable-background:new 0 0 1088.9 363.1;" xml:space="preserve">
<g transform="translate(0.000000,394.000000) scale(0.100000,-0.100000)">
	<path d="M3380.4,3104.1c-14-16-10-62,13-169c14-65,26-76,51-51s23,195-2,218C3419.4,3123.1,3396.4,3124.1,3380.4,3104.1z"/>
	<path d="M7780.4,2994.1c-89-19-339-105-441-153c-313-145-691-444-916-724c-97-122-123-140-167-120c-35,15-112,124-125,175
		c-19,76-43,88-133,67c-215-48-354-61-364-35c-6,16,28,65,109,154c88,98,127,187,95,219c-18,18-79,14-116-8c-35-21-72-74-72-103
		c0-14,10-11,55,20c51,33,57,35,71,21c15-14,11-23-35-91c-65-97-99-122-197-147c-43-11-119-40-169-65c-97-49-257-162-274-193
		c-15-27,8-66,41-70c38-5,183,66,243,118c82,71,140,85,225,55c63-22,111-19,229,16c156,46,159,47,167,13c29-129,48-156,151-209
		c48-25,82-50,90-65c7-14,13-55,13-92s5-79,11-95c24-66,116-127,207-139c78-10,228,20,293,59c93,56,69,74-49,37c-94-29-177-27-243,8
		c-36,18-60,39-71,61c-15,30-15,37-1,84c32,110,80,197,151,270c37,40,91,104,119,142c129,176,349,336,820,592c78,42,289,103,359,103
		c67,0,104-14,104-39c0-33-84-135-156-189c-38-29-125-82-194-119l-125-68l63-3c54-3,74,2,129,28c183,85,433,305,433,381
		c0,28-46,75-90,93C7963.4,3006.1,7857.4,3011.1,7780.4,2994.1z M5401.4,2130.1c-15-28-98-79-155-96c-27-8-51-13-53-11
		c-10,9,95,88,141,105C5401.4,2154.1,5414.4,2154.1,5401.4,2130.1z"/>
	<path d="M10642.4,2872.1c-56-20-152-107-152-138c0-14,12-33,28-45c25-21,34-22,127-16c55,4,106,12,113,19c10,8,13,30,10,80
		c-3,61-7,72-31,93C10705.4,2892.1,10700.4,2893.1,10642.4,2872.1z M10694.4,2787.1c-17-31-39-48-60-48c-32,0-38,16-14,40
		C10642.4,2801.1,10706.4,2808.1,10694.4,2787.1z"/>
	<path d="M4185.4,2853.1c-47-24-68-47-216-236c-199-254-240-300-511-578c-133-137-249-264-256-281c-38-90,101-74,193,22l40,42l-30-6
		c-16-3-38-9-47-12c-31-12-21,20,23,75c70,89,215,181,308,196c38,6,41,5,35-12c-4-11-34-57-67-104c-71-101-86-133-71-158
		c23-36,56-25,179,56c171,113,232,144,257,131c13-7,17-16,13-27c-29-74-8-132,48-132c18,0,42,6,52,14c17,12,18,16,4,37
		c-12,18-14,42-11,92c6,89-4,101-76,94l-53-6l26,31c39,46,30,68-35,93c-30,12-56,28-58,36c-1,8,20,49,48,91c27,42,68,118,91,170
		c54,124,81,169,141,235c52,58,83,116,74,139C4279.4,2874.1,4222.4,2873.1,4185.4,2853.1z M4043.4,2562.1c-4-10-24-38-46-63
		s-70-103-106-175c-71-139-93-163-159-172c-61-8-56,16,21,96c35,36,109,126,165,199c57,72,109,132,117,132
		C4044.4,2579.1,4047.4,2573.1,4043.4,2562.1z M3917.4,2078.1c-23-33-136-109-162-109c-4,0,9,21,27,46c38,54,81,84,121,84
		C3929.4,2099.1,3930.4,2098.1,3917.4,2078.1z"/>
	<path d="M5439.4,2834.1c-47-25-46-65,2-80c49-16-1-123-80-175c-103-65-119-16-36,110c30,47,54,92,53,100c-9,47-151,4-231-70
		c-54-50-59-80-7-41c25,18,100,51,116,51c11,0,0-32-31-94c-49-97-45-156,10-156c43,0,140,59,201,122c71,73,81,91,93,155
		C5545.4,2841.1,5509.4,2872.1,5439.4,2834.1z"/>
	<path d="M1314.4,2810.1c-17-10-42-36-55-57c-13-22-73-91-132-154c-60-63-139-160-177-215c-80-119-219-306-345-465
		c-50-63-120-153-155-200c-36-47-124-148-197-224c-74-77-132-144-130-150c6-17,37-19,65-4c62,32,243,238,455,516
		c76,99,168,208,204,243c61,56,223,172,231,164c2-2-16-41-39-87c-35-66-65-104-149-189c-58-58-133-131-168-162c-56-50-63-60-60-89
		c2-23,11-37,30-47c24-14,30-13,79,9c28,14,83,53,122,87c90,82,255,193,285,193h23l-20-29c-35-49-61-114-61-153c0-79,85-87,220-22
		c83,40,117,42,155,12c16-12,42-22,60-22c73,0,334,201,430,331c52,70,138,150,143,134c8-23-47-91-184-231c-77-80-144-155-148-167
		c-9-29,9-61,38-69c38-9,252,52,341,97c60,31,98,43,153,50c89,10,158,40,234,103c77,63,194,200,209,243c7,22,44,67,96,120
		c47,46,87,82,89,80c9-9-132-274-211-397c-172-269-219-381-196-467c14-50,52-83,95-83c50,0,60,18,31,52c-30,35-32,85-9,173
		c26,101,253,518,425,780c99,151,129,214,129,265c0,39-22,54-70,47c-62-8-92-38-150-148c-142-269-364-549-506-639
		c-100-63-114-51-51,47c59,90,97,164,97,185c0,37-81,50-144,24c-59-25-122-133-141-243c-7-40-20-84-28-96c-20-30-142-91-229-114
		c-113-30-106-7,48,157c63,68,144,166,178,219c84,126,176,301,176,333c0,44-42,44-94-1c-10-9-51-63-92-121c-40-58-96-127-124-155
		c-28-27-67-75-85-106c-29-47-56-71-177-156c-128-90-197-133-212-133c-3,0,5,30,19,68c24,66,63,112,94,112c8,0,28-12,44-27l29-28
		l17,22c23,27,36,116,21,143c-16,30-72,36-122,11c-64-31-145-107-180-168c-31-55-58-75-115-87c-41-9-83-42-83-66c0-42-63-67-89-36
		c-10,12-1,36,44,121c45,86,53,109,45,125c-28,53-146,2-350-150c-74-56-150-110-168-122c-59-37-49-7,18,50c164,140,279,284,350,435
		c56,118,26,135-105,58c-47-27-85-48-85-45c0,13,318,411,366,459c29,29,30,51,5,65C1346.4,2832.1,1351.4,2832.1,1314.4,2810.1z
		 M3056.4,2614.1c-21-43-51-50-35-7c10,27,39,56,47,47C3071.4,2652.1,3065.4,2634.1,3056.4,2614.1z"/>
	<path d="M6246.4,2519.1c-47-52-48-80-3-80c35,0,63,22,87,68C6362.4,2569.1,6300.4,2578.1,6246.4,2519.1z"/>
	<path d="M7844.4,2481.1c-17-9-101-65-187-124c-86-60-158-108-161-108c-2,0-7,17-10,38c-15,81-18,83-129,60c-55-12-61-11-99,11
		c-60,34-139,38-212,11c-135-51-218-189-153-254c55-55,169-37,313,49c50,30,96,55,104,55c7,0,30-19,51-41c38-41,39-42,93-36
		c65,6,115,31,222,108c45,32,114,78,154,102c81,47,135,104,124,130C7946.4,2504.1,7885.4,2504.1,7844.4,2481.1z M7146.4,2288.1
		c17-28-51-79-105-79c-40,0-48,16-24,48C7048.4,2298.1,7127.4,2317.1,7146.4,2288.1z"/>
	<path d="M9830.4,2445.1c-58-29-115-57-128-60c-20-7-21-6-12,20c13,32,0,51-48,71c-27,11-41,12-70,2c-73-23-208-100-272-154
		c-49-42-72-55-96-55c-18,0-35,4-39,9c-3,6-41,8-91,4c-79-6-86-4-109,17c-39,36-105,25-234-42c-104-54-208-95-217-85
		c-10,9,49,68,95,94c96,55,125,102,77,124c-66,30-183-31-328-170c-91-88-110-111-110-136c0-48,35-69,107-62c33,3,87,15,119,27
		c71,24,92,25,139,5c50-21,130-19,205,5c35,11,85,20,110,20c65-1,165-23,170-38c7-23-50-61-156-102c-59-23-136-58-172-77
		s-77-42-92-50c-16-8-28-21-28-29c0-12,5-12,35,0c19,8,102,37,184,65c82,27,184,66,226,85c85,40,107,43,125,22c18-23-16-83-69-121
		c-25-19-73-41-106-51c-107-30-171-73-163-111c5-25,55-20,118,12c60,31,69,31,44,3c-67-75-271-197-441-262c-88-34-327-86-396-86
		c-20,0-39-4-42-10s-48-10-101-10c-91,0-108-6-81-28c19-16,344,3,462,28c462,96,648,185,776,372c29,42,48,59,76,68
		c21,7,99,49,173,93c283,167,347,220,407,335c32,59,68,82,131,82c78,0,79,51,2,64c-22,3-40,9-40,11c0,3,16,19,35,36
		c40,36,52,68,35,98c-8,17-20,21-58,21C9945.4,2499.1,9913.4,2488.1,9830.4,2445.1z M9498.4,2307.1c-3-23-92-98-115-98
		c-25,0-12,30,30,75C9461.4,2334.1,9504.4,2346.1,9498.4,2307.1z M9780.4,2275.1c24-30-81-169-179-235c-65-44-211-121-229-121
		c-28,0-7,35,72,123c110,122,188,192,245,222C9743.4,2292.1,9763.4,2294.1,9780.4,2275.1z"/>
	<path d="M1583.4,2469.1c-53-32-71-130-24-130c39,0,102,97,87,135C1639.4,2494.1,1621.4,2493.1,1583.4,2469.1z"/>
	<path d="M8020.4,2405.1c-110-46-156-75-208-129c-54-58-62-77-38-97c12-9,38,3,138,67c68,44,145,91,171,107c37,21,47,32,45,49
		C8124.4,2433.1,8087.4,2434.1,8020.4,2405.1z"/>
	<path d="M8080.4,2312.1c-38-26-49-45-50-80c0-50,35-82,96-90c45-5,53-3,62,14c8,15,6,26-9,49c-12,18-19,46-19,77c0,45-1,47-28,47
		C8117.4,2329.1,8093.4,2321.1,8080.4,2312.1z"/>
	<path d="M4602.4,2264.1c-17-14-34-25-39-25c-16,0-211-117-257-155c-72-59-54-105,33-83c23,6,44,8,48,5c3-4-48-97-113-207
		c-97-164-133-216-193-276c-41-42-89-87-108-101c-35-27-42-43-18-43c29,0,181,148,242,235c75,108,249,341,296,398
		c58,70,149,139,214,163c49,18,83,41,83,56c0,12-108,58-135,58C4642.4,2289.1,4618.4,2278.1,4602.4,2264.1z"/>
	<path d="M10132.4,2281.1c-8-5-12-22-10-38c3-26,6-29,37-26c43,3,63,19,59,46c-2,16-11,22-38,24
		C10161.4,2288.1,10139.4,2285.1,10132.4,2281.1z"/>
	<path d="M4601.4,1873.1c-12-15-21-41-21-60c0-29,4-34,23-34c43,0,105,93,75,112C4653.4,1906.1,4621.4,1899.1,4601.4,1873.1z"/>
	<path d="M3830.4,1315.1c-19-7-64-28-100-46c-94-47-188-81-195-70c-3,5-1,28,5,51c14,50,9,57-24,35c-35-23-58-70-54-114
		c3-32,7-37,31-40c15-2,60,9,100,24c100,37,287,145,287,165C3880.4,1331.1,3873.4,1331.1,3830.4,1315.1z"/>
</g>
</svg>
