<?xml version="1.0" encoding="utf-8"?>
<!-- Generator: Adobe Illustrator 27.7.0, SVG Export Plug-In . SVG Version: 6.00 Build 0)  -->
<svg version="1.1" id="Layer_1" xmlns="http://www.w3.org/2000/svg" xmlns:xlink="http://www.w3.org/1999/xlink" x="0px" y="0px"
	 viewBox="0 0 1088.9 363.1" style="enable-background:new 0 0 1088.9 363.1;" xml:space="preserve">
<path id="path2844" d="M599.6,288.7c-15.9-5.7-12.7-46.6,6.8-87.8c8-16.9,18-24.5,29.1-22.2c4.4,0.9,12.3,2.3,17.5,3
	c5.7,0.8,9.1,2.5,8.4,4.2c-0.6,1.6-5.3,15-10.4,29.9c-9.3,27.1-10.1,39.4-2.7,39.4c5.5,0,28.5-19.3,32.8-27.6
	c2.1-4.1,5.1-7.5,6.7-7.5c1.9,0,2.4-6.1,1.6-19c-1.2-18.6-1.1-19.1,5.3-21.6c6.4-2.5,63.8-4.6,69.9-2.6c5.7,1.9,3.3,23.6-6.9,61.5
	c-5.5,20.5-11.2,39.4-12.6,42c-3.9,7.4-13.6,5.9-22.5-3.3c-6.4-6.7-7.6-9.7-6.7-16.9c1.1-9,9.3-23.7,23.7-42.7
	c13.2-17.4,9.8-31.3-7.1-29.6c-5.7,0.6-10.2,3.5-15.3,9.7c-6.6,8.1-7.4,11.6-9.8,38.9c-3.4,39.6-3.7,40.5-12.3,45
	c-10.3,5.3-18.6,5.1-17-0.6c0.7-2.4,3.3-11.4,5.7-20.1c2.5-8.6,3.9-16.3,3.2-17c-0.7-0.7-9.7,7.1-20,17.4
	c-14.3,14.3-20.9,19.1-28.1,20.5c-13,2.4-15.2-0.6-15.1-22.1c0.1-14.9,1.5-21.4,8.1-36.2c4.4-9.9,8-19.8,8-22c0-6-6.2-4.7-14.3,3
	c-13.3,12.6-24.6,63.7-13.5,61.3c4.5-1,7.7,4,7.7,12.2C619.7,288.7,611.6,293,599.6,288.7L599.6,288.7z M460.1,281.9
	c-11.3-4.9-11.8-11.5-2.9-37.5c8.7-25.2,10-44.1,5.9-84.7c-2.5-24.7,2.4-51.2,12-65.5c20.8-30.9,65.3-22.6,70.5,13.2
	c0.7,4.8,2.4,13.7,3.8,19.6c1.4,6,1.6,12.5,0.5,14.5c-3.9,7-26.2,28.6-29.5,28.6c-6.3,0-5.8-4.1,2.8-22.7c9.1-19.8,10.2-28,6-43.1
	c-4.3-15.6-18.9-19.2-32.2-8c-9.8,8.2-12.8,19.4-12.8,47.9c0,29.7,0.5,30.9,13.7,30.9c24.9,0,36.3,19.6,28,48.1
	c-5.4,18.7-17.4,35.7-34.2,48.6C475,284.7,470.2,286.2,460.1,281.9z M494.2,245.4c4.2-8.2,7.6-16.6,7.6-18.7
	c0-3.3-14.6-16.5-18.2-16.5c-2.2,0-5.1,39.2-3.2,44.9C483.1,263.5,486.2,261.4,494.2,245.4L494.2,245.4z M143,274.9
	c-20.2-12.1-23.6-20.3-24.7-60.3c-1.2-41.1,3.3-57.5,23.7-86.1c18.7-26.2,24.8-32.7,40.8-43.1c11.9-7.7,16.4-9,38.9-11.3
	c30.5-3.1,51.1-1,62.2,6.5c9.4,6.3,11.6,12.2,11.9,32.6c0.4,25.5-11.5,44.4-38.5,60.7c-3.8,2.3-3.7,3.4,1,13
	c2.8,5.8,6.1,17.6,7.4,26.3c1.2,8.7,4.2,20.6,6.5,26.3c4.3,10.6,14.9,20.3,17.5,16c0.8-1.3,3.1-14.4,5.2-29.2c4.6-33,9-43.1,21-48.1
	c13.3-5.6,30.6-1.8,33.8,7.4c3.1,8.8-6,22.7-17.5,26.9c-17.4,6.3-28.2,31.8-20.1,47.4c8.8,17.1,2.3,26.9-10.1,15.3
	c-5.8-5.5-11-4.7-11,1.7c0,5-6.6,4.5-18.9-1.4c-15-7.3-22.4-22.2-26.6-53.7c-3.1-23.4-3.7-25.1-10.9-29.5c-4.2-2.5-8.3-4.6-9.1-4.6
	c-0.9,0-2.3,4.6-3.2,10.3c-2.3,14.4-8.1,24.6-32,56.2C166,286.2,163.7,287.2,143,274.9z M162,255.9c7.3-5.1,30.3-48.4,38.8-73.2
	c15.9-46.2,26.5-57.6,26-28.1c-0.3,18.3,2.3,19.4,19,8.2c10.9-7.3,32.7-37.5,32.6-45.2c0-8-5.2-22.3-8.5-23.6
	c-12.8-4.9-26.6-4.4-47.2,1.9c-43.3,13.2-71,43.2-78.8,85.4c-9.3,50.2-9.3,49.9-6.2,61C141.3,255.1,153.5,261.9,162,255.9z
	 M812.8,281c-3.4-0.5-7.5-2.5-9-4.5c-2.2-2.8-4.2-2.9-10.3-0.7c-4.2,1.6-9.5,2.1-11.8,1.2c-5.4-2.1-11.5-16.7-11.5-27.6
	c0-18.8,16.3-54.5,33.1-72.6c8.8-9.4,12.9-12,19.7-12.3c4.7-0.2,10.2-0.5,12.2-0.6c2-0.1,4.1-1.9,4.7-4c0.6-2.1,5.4-12.8,10.6-23.8
	s10.9-25,12.7-30.9c2.7-9,5.6-12.4,17-19.7c7.6-4.8,15.3-9.4,17.1-10.1c9.6-3.7-2.6,30.2-23.5,65.7c-8.1,13.8-19.6,36.7-25.4,51
	c-10,24.4-23,68.6-23,78C825.4,277.1,819.6,282,812.8,281L812.8,281z M811,248.6c13.6-46.7,19.2-65.5,20.7-69.1
	c2.9-7.2-10-5.5-18.8,2.5c-6.4,5.9-8.5,11.1-13.8,35c-6.4,28.5-7.5,38.8-4.7,41.7C796.9,261.1,809.6,253.5,811,248.6L811,248.6z
	 M421.3,272.6c-4.4-8.3-1.2-33.8,6.3-49.9c3.5-7.6,6.4-16.2,6.4-19.2c0-9.9-11.3-16.7-19-11.4c-1.5,1-4.2,9.2-6,18.1
	c-4.9,24.1-17.2,54.9-23.5,58.8c-3,1.9-7.9,4.1-11,5.1c-7.9,2.4-7.4-2.6,2.7-25.8c10.1-23.2,15-40.2,13.8-48.3c-0.7-4.8-2.3-6-8.4-6
	c-6.3,0-8.3,1.6-12.4,9.9c-6.4,13.1-13.8,40.5-13.9,51.5c-0.1,10.2-1.8,13.2-9.3,17.2c-9.4,5-13,3.5-14.8-6
	c-1.3-6.9-0.6-10.2,3.2-14.4c2.7-3,9.7-16.2,15.7-29.2c9.9-21.7,10.6-24.4,7.9-31.9c-2.5-6.8-2.3-9.2,1-14.3
	c4.6-7,12.7-6.4,15.1,1.2c1.9,6.1,5.1,6,13-0.3c7.9-6.2,15.4-6.4,19.7-0.6c3.1,4.1,3.9,4.1,13.3-1.3c11-6.2,18.1-7,25.5-3
	c5.8,3.1,6.4,15.7,1.9,38.8c-1.6,8.3-3.1,23.3-3.3,33.3c-0.3,14-1.6,19.9-5.5,25.1C433.3,278.8,425.3,280,421.3,272.6L421.3,272.6z
	 M530.1,273.8c-0.9-2.3,1.8-10.8,6.1-19.4c10.6-21,13.8-33.9,15.5-61.5c1.1-19.1,2.3-24.1,6-26.3c3.7-2.3,5.4-1.6,9.6,4.1
	c4.2,5.7,7,6.9,16,6.9c10.6,0,11,0.3,12.7,9.2c2.4,12.8-1.1,16.9-15.5,18.4l-12.2,1.3l-4.3,22.6c-2.4,12.4-4.3,28.5-4.4,35.7
	l-0.2,13.2h-13.9C535.1,277.9,531.3,276.9,530.1,273.8z M845.5,264.4c0-4.7,1.8-9.9,3.9-11.7c6-5,13.3-20.7,17.6-38.1
	c2.1-8.6,6.1-18.8,8.8-22.6l4.9-6.9h-8.9c-8.1,0-8.9-0.6-8.9-7.2c0-7.9,4.4-10.2,19.3-10.3c6.8,0,8.7-1.5,12.4-9.2
	c9.2-19.5,31.8-36.2,39-29c1.8,1.8-0.8,6.9-8.8,16.7c-10.2,12.5-16.3,23.4-13.9,24.9c0.5,0.3,8.8,2.5,18.4,4.9
	c33.4,8.4,41.6,16.1,33.5,31.2c-2.9,5.4-4.6,6-14,5c-6.7-0.8-15.7-4.6-23.9-10.2c-7.2-4.9-16-9.6-19.4-10.5
	c-5.9-1.4-6.7-0.3-13.2,16.8c-4.7,12.3-6.9,23-6.9,32.6c0,7.8-1,17-2.3,20.4c-2.7,7.1-13.9,11.8-28.1,11.8
	C845.8,272.9,845.5,272.6,845.5,264.4L845.5,264.4z M961.9,239.1c-6.1-9.4-1.9-19.9,8.4-20.9c11.3-1.1,18.1,3.3,18.1,11.8
	C988.5,244.6,969.7,251,961.9,239.1z"/>
</svg>
