<?xml version="1.0" encoding="utf-8"?>
<!-- Generator: Adobe Illustrator 27.7.0, SVG Export Plug-In . SVG Version: 6.00 Build 0)  -->
<svg version="1.1" id="Layer_1" xmlns="http://www.w3.org/2000/svg" xmlns:xlink="http://www.w3.org/1999/xlink" x="0px" y="0px"
	 viewBox="0 0 1088.9 363.1" style="enable-background:new 0 0 1088.9 363.1;" xml:space="preserve">
<path id="path2519" d="M254,293.5c2-5.3,3.7-50,3.7-99.4c0-118.7,4.2-124.7,42.3-60.9c27.6,46.3,35.4,57.4,38.1,54.5
	c4.2-4.5-4.7-117.3-9.4-118.9c-12.1-4-2.8-9.7,14.5-8.8c17.5,0.9,19,1.8,16,9.8c-3.8,10.5-1.5,129,2.8,140.6
	c2.3,6.2,11.3-7,38.6-56.6c26.6-48.3,38.1-65.3,45.5-67.1c5.4-1.4,11.9-1.2,14.3,0.3c2.9,1.8,4.5,34.7,4.5,94.6
	c0,77.3,1.1,93.5,6.9,102.4l6.9,10.5h-26.3c-25.3,0-26.1-0.3-21.6-8.9c5.7-10.7,5.8-153.7,0.1-159.4c-4.9-4.9-18.7,17-51.2,82
	c-14.3,28.6-27.8,52-29.8,52s-4.9-3-6.3-6.6c-5.7-15-68.7-113.1-72.5-113.1c-2.6,0-3.1,24.6-1.3,67.4c2.4,57.6,4.1,69,11.4,78.9
	c4.7,6.4,8.5,12.6,8.5,13.9c0,1.3-8.9,2.3-19.7,2.3C251.3,303.2,250.5,302.7,254,293.5z M764.5,296.7c0-0.6,2.9-6.6,6.4-13.3
	c10-19.2,8.1-51.9-4.2-73.5l-10.6-18.5l13.8,2.9c7.6,1.6,16.5,5.5,19.8,8.6c5,4.7,7.7,4.6,16.2-1c14-9.1,32.5-1.4,30.5,12.7
	c-1.7,12.1-16.1,15.2-23.5,5c-3.5-4.7-7.1-6.2-9.4-3.7c-4.9,5.3-9.5,70.3-5,70.3c1.9,0,6.7-5,10.7-11.1c4-6.1,8.1-10.2,9.2-9.1
	c3.5,3.5-7.9,23.9-15,26.8C796.7,295.5,764.5,298.8,764.5,296.7z M567.4,283.5c-8.9-10.8-10.6-59.4-2.4-71.9
	c7.3-11.2,35.7-22.8,41.2-16.9c10.5,11.3,9.1,23.4-4.3,35.9c-7.5,7-15.6,12.7-18.1,12.7s0.8-4.9,7.2-10.8
	c11.5-10.7,12.9-19.2,3.5-22.4c-2.6-0.9-7.9,3.1-11.7,8.9c-5.4,8.2-6.1,14.9-3.3,31.3l3.6,20.8l16.8-0.6l16.8-0.6L604,280.1
	C589.2,291.9,575.5,293.2,567.4,283.5z M676.4,281.3c-6.4-7.1-8.1-15.5-8.1-38.9c0-26.3,1.3-30.9,10.2-38.1
	c21.3-17.2,43.3-13.9,43.3,6.6c0,5.2-4.5,13.6-9.9,18.7c-13.6,12.7-19.6,11.8-7.4-1.2c5.7-6,8.8-13.3,7.3-17.1
	c-7.3-19.1-24.2,4.7-24.2,34.1c0,22.8,5.1,32,18,32c9.5,0,10.1,6.7,0.9,10.2C694.1,292.5,684.7,290.4,676.4,281.3z"/>
<path id="path2541" d="M597.7,223.4c-0.7,0.6-1.4,1.1-2.1,1.6c-0.1,0.1-0.2,0.2-0.3,0.2c-1.2,0.7-2.3,1.3-3.5,2
	c-0.1,0.1-0.4,0.2-0.3,0.2c6.1-3.5,1.3-0.7-0.8,0.5c6.1-3.5,1.3-0.8-0.5,0.3c-1,0.6,3.9-2.2,2.9-1.7c-1.2,0.7-2.6,1.6-4,2.3
	c-0.1,0.1-0.4,0.2-0.3,0.2c0.9-0.5,3.7-2.2,2.8-1.6c-1.5,0.8-3,1.9-4.6,2.6c-0.8,0.4-1.6,0.9-2.5,1.2c-0.6,0.3-1.3,0.6-1.9,0.9
	c-0.3,0.1-0.7,0.2-1,0.4c0,0-0.1,0.1-0.1,0.1c0,0,0,0-0.1-0.1c0-0.1-0.1-0.3-0.1-0.4c0-0.1,0.8-0.9,0.9-1c0.5-0.5,1.1-1,1.7-1.4
	c0.6-0.4,1.2-0.8,1.8-1.2c0.7-0.6,1.5-1.1,2.1-1.8c0.4-0.4,0.8-0.8,1.3-1.2c7.3-4.2,1.9-1.1,0.4-0.2c-0.1,0.1,0.2-0.2,0.4-0.3
	c1.1-0.7,2.3-1.3,3.4-1.9c1-0.6-2,1.1-3,1.7c1.3-1,2.7-2.1,4.4-2.3c0.3-0.1,0.5,0,0.8,0c0.3,0,0.6-0.2,0.8-0.3
	c0.5-0.1,1.2-0.3,0.9,0.5c-0.3,0.4-0.6,0.9-1,1.2c-1.2,1-2.4,1.5-3.8,2.3c-0.2,0.1-0.7,0.4-0.5,0.3c1-0.6,1.9-1.1,2.9-1.7
	c-9.6,5.5-0.4,0.3-0.7,0.4c-1.2,0.7-2.3,1.3-3.5,2c-0.1,0.1-0.4,0.3-0.3,0.2c2.9-1.7,3.8-2.2,2.6-1.4c-0.9-0.1-2.7,1.8-4.1,2.2
	c-0.3,0.1-0.6,0.1-0.9,0.3c-0.5,0.1-1,0.2-1.5,0.4c-2.1,0.9,1.5-1.2,2.8-1.9c0.1,0,0.2,0,0.3-0.1c0.1,0,1.4-0.7,0.6-0.3
	c-5.1,3-3.2,1.9-2.1,1.1c2-1.3,7.2-4.2,1.2-0.8c-0.1,0.1,0.3-0.2,0.4-0.2c0.3-0.2,0.4-0.3,0.7-0.5c1.4-1,2.9-1.7,4.4-2.6
	c0.1-0.1,0.4-0.3,0.3-0.2c-0.9,0.5-1.9,1.1-2.8,1.6c0.1,0,0.9-0.9,0.8-0.6c-0.4,0.1-0.7,0.2-1.1,0.4c-0.1,0-0.2,0.1-0.3,0.1
	c-0.2,0.1-0.7,0.4-0.6,0.3c1-0.5,1.9-1.1,2.9-1.6c0.1-0.1-0.2,0.1-0.3,0.2c-1.2,0.7-2.3,1.3-3.5,2c-0.7,0.4-1.4,0.8-2.2,1.1
	c-0.7,0.3-1.3,0.5-2,0.9c-1.2,0.6-2.8,1.8,2.5-1.5c0,0-0.3-0.2,0.2-0.2c0.8,0,1.6,0.1,2.4,0c1-0.2,1.9-0.8,2.8-1.2
	c-5,2.8-2.8,1.7-1.8,0.9c0.3-0.3,0.6-0.5,0.9-0.8c0.3-0.6,0.3-0.4-0.1-0.2c-0.1,0-0.2,0-0.2,0.1c-0.3,0.1-0.2,0.1-0.5,0.3
	c-0.1,0-0.3,0.2-0.3,0.1c1-0.6,3.9-2.3,2.9-1.7c-1.1,0.7-2.3,1.3-3.4,2c-0.5,0.2-1,0.5-1.5,0.7c-0.1,0.1-0.2,0.1-0.3,0.2
	c-0.2,0.1-0.8,0.4-0.6,0.3c5.2-3,3.4-2,2.3-1.3c-0.7,0.4-1.3,0.9-1.9,1.4l-3.4,1.3c0.7-0.4,1.3-1,1.9-1.4c1.6-1,3.2-2,4.9-2.8
	c0.5-0.2,1-0.5,1.5-0.7c-1,0.6-3.9,2.3-2.9,1.7c1.3-0.7,2.9-2,4.5-2.4c0.7,0,0.8,0.4,0.6,1c-1.3,1.7-3.7,2.5-5.4,3.6
	c-0.9,0.5-1.9,1-2.9,1.2c-0.8,0.1-1.7,0.1-2.5,0c-0.3-0.1-0.3,0-0.5-0.3c0-0.1-0.1-0.2-0.1-0.2c1.3-0.8,2.5-1.5,3.8-2.2
	c0.7-0.3,1.3-0.6,2-0.8c0.8-0.3,1.5-0.7,2.2-1.1c-0.9,0.5-1.9,1.1-2.8,1.6c-0.1,0.1,0.2-0.1,0.3-0.2c1.5-0.8,2.8-1.8,4.3-2.3
	c0.4-0.2,0.9-0.3,1.3-0.1c0.6,0.6-0.1,0.8-0.6,1.2c-1.1,0.7-2.3,1.4-3.4,2.1c-0.1,0.1-0.5,0.3-0.3,0.2c0.9-0.6,1.9-1.1,2.8-1.7
	c0.1-0.1-0.2,0.1-0.3,0.2c-0.8,0.5,0.2-0.1-0.6,0.4c-0.2,0.2-0.5,0.3-0.7,0.5c-2,1.3-7.2,4.1-1.2,0.7c0.1-0.1-0.2,0.2-0.4,0.3
	c-1.6,1.1-3.3,2.4-5.2,2.8c-2-0.2,1.9-2.2,3.1-2.6c0.5-0.2,1-0.3,1.5-0.4c1.4-0.4,4-1.9-1.4,1.1c1.5-0.8-0.4,0.2,3.7-2.2
	c0.1-0.1,0.4-0.2,0.3-0.2c-0.9,0.5-3.7,2.2-2.8,1.6c0.6-0.3,7.7-4.5,0.7-0.4c1.1-0.7,2.3-1.3,3.4-2c0.2-0.1,0.7-0.4,0.5-0.3
	c-1,0.6-1.9,1.1-2.9,1.7c-0.1,0,0.2-0.1,0.2-0.1c0.1-0.1,0.1-0.1,0.2-0.2c0.2-0.1,0.5-0.3,0.6-0.5c0.1-0.2,0.2-0.4,0.4-0.6
	c0.2-0.1,0.3,0.1,0.2,0.1c-0.2,0.1-0.5,0.1-0.7,0.2c-0.6,0.2-1.1,0.2-1.7,0.3c-0.2,0-0.3,0.1-0.4,0.1c-0.1,0-0.3,0.1-0.2,0.1
	c5.3-3.1,3.6-2.2,2.6-1.5c-1.1,0.7-2.3,1.3-3.3,2c-1,0.6,2-1.2,3-1.7c0.1,0-0.1,0.1-0.2,0.1c-0.1,0-0.1,0.1-0.2,0.1
	c-1.1,0.7-2.3,1.3-3.3,2c-0.9,0.6,2-1.2,3-1.7c-0.2,0.1-0.4,0.3-0.6,0.5c-0.3,0.2-0.6,0.3-0.7,0.6c-0.6,0.7-1.4,1.2-2.1,1.8
	c-0.1,0.1-0.5,0.4-0.6,0.5c-0.4,0.3-0.8,0.4-1.1,0.7c-0.6,0.4-1.2,0.8-1.7,1.4c-0.1,0.1-0.8,0.9-0.9,0.9c-0.1-0.1-0.2-0.2-0.2-0.3
	c0,0-0.1,0,0-0.1c0.1-0.1,1-0.3,1.1-0.4c0.6-0.3,1.3-0.6,1.9-0.9c0.8-0.4,1.6-0.8,2.5-1.2c0.5-0.2,0.4-0.2,0.8-0.4
	c0.1-0.1,0.5-0.3,0.4-0.2c-6.1,3.5-1.1,0.6,1-0.6c0.1-0.1,0.2-0.1,0.3-0.2c0.1,0,0.3-0.2,0.3-0.1c-1,0.6-3.9,2.2-2.9,1.7
	c11.4-6.5-7.4,4.2,4-2.3c0.1,0,0.4-0.2,0.3-0.1c-1,0.6-3.8,2.2-2.9,1.7c1.2-0.6,2.3-1.3,3.4-2c0.1-0.1,0.4-0.2,0.3-0.2
	c-0.9,0.6-1.9,1.1-2.8,1.6c-0.1,0.1,0.2-0.1,0.4-0.2c0.7-0.5,1.4-1,2.1-1.6L597.7,223.4z"/>
<path id="path2551" d="M587.6,228.5c0.3-0.2,0.7-0.4,1-0.6c0,0,0.3-0.1,0.3-0.1c0.2-0.1,0.5-0.2,0.7-0.3c-0.2,0.1-0.4,0.2-0.6,0.3
	c0,0,0,0,0,0c0,0,0,0-0.1,0c0,0-0.1,0-0.1,0c-0.1,0-0.2,0.1-0.3,0.1c-0.3,0.1-0.5,0.2-0.8,0.3C587.8,228.4,587.6,228.5,587.6,228.5
	c0.2-0.2,0.3-0.2,0.4-0.3c-0.4,0.2-0.8,0.5-1.3,0.7c0.1,0-0.1,0.1-0.1,0c0.2-0.1,0.4-0.3,0.6-0.4c0,0,0.1,0,0.1,0
	C587.4,228.5,587.5,228.5,587.6,228.5c0.6-0.2,1.2-0.4,1.8-0.5c0.2-0.1,0.4-0.1,0.6-0.2c0,0,0.1-0.1,0.1,0c-0.5,0.3-0.7,0.4-0.5,0.3
	c0,0,0,0,0,0.1c0,0,0,0,0,0c0,0-0.1,0-0.1,0c-0.1,0,0,0-0.1,0l0.5-0.4c0.1,0,0,0,0.1,0c0.1,0,0.2-0.1,0.2,0.1
	c-0.2,0.1-0.2,0.1-0.6,0.4c0,0-0.1,0-0.1,0c-0.2,0.1-0.4,0.1-0.5,0.2c-0.6,0.2-1.2,0.4-1.7,0.5c-0.1,0-0.2,0.1-0.4,0.1
	c0,0-0.1,0-0.1,0c0.3-0.3,0.3-0.3,0.6-0.4c0.1-0.1,0.3-0.1,0.4-0.2c0.2-0.1,0.3-0.2-0.2,0.1c0.2-0.1,0.5-0.3,0.7-0.4
	c0.1-0.1,0.2-0.1,0.4-0.2c0.2-0.1,0.4-0.2,0.6-0.2c0.1,0,0.3-0.1,0.5-0.1c0,0,0.2,0,0.1,0.1c-0.2,0.1-0.4,0.2-0.6,0.3
	c-0.2,0.1-0.5,0.1-0.7,0.2c-0.1,0-0.1,0-0.2,0.1c-0.1,0-0.2,0.1-0.2,0.1c0.1-0.1,0.3-0.2,0.4-0.2c0.1,0-0.2,0.1-0.2,0.1
	c0,0,0,0-0.1,0L587.6,228.5z"/>
<path id="path2553" d="M577.3,222.4c0.1,0.1,0.1,0.1,0.1,0.2c0.2,0.3,0.3,0.7,0.4,1.1c0.2,0.7,0.4,1.3,0.6,2
	c0.1,0.2,0.1,0.3,0.2,0.5c0,0,0,0,0,0.1c0,0,0,0,0,0c-0.2,0.1-0.4,0.2-0.6,0.3c0,0,0,0,0-0.1c0.1-0.1,0.1-0.3,0.1-0.4
	c0-0.2,0-0.2,0.1-0.5c0-0.5,0.1-1,0.1-1.4c0-0.2,0-0.3,0-0.5l0.6-0.3c-0.1,0.2,0,0.3,0,0.5c0,0.5,0,1-0.1,1.4c0,0.3-0.1,0.7-0.2,1
	c-0.2,0.1-0.4,0.2-0.6,0.3c0,0,0,0,0,0c0,0,0-0.1,0-0.1c-0.1-0.2-0.1-0.4-0.1-0.5c-0.2-0.7-0.4-1.4-0.6-2c-0.1-0.3-0.2-0.7-0.4-1.1
	c0-0.1-0.1-0.1-0.1-0.2L577.3,222.4z"/>
<path id="path2555" d="M568.8,230.2c0.1-0.1,0.1-0.2,0.2-0.4c0.1-0.1,0.1-0.3,0.1-0.5c0-0.2,0-0.3,0.1-0.5c0-0.1,0-0.3,0-0.4
	l0.6-0.3c0,0.1,0,0.3,0,0.4c0,0.2,0,0.3-0.1,0.5c0,0.2-0.1,0.3-0.1,0.5c0,0.1-0.1,0.2-0.2,0.4L568.8,230.2z"/>
<path id="path2559" d="M574.8,233c0,0.4,0,0.7,0,1.1c0,0.7,0,1.4,0,2.1c0,0.5,0,1,0,1.6c0,0.2,0,0.4,0,0.6c0,0,0,0,0,0l-0.6,0.3
	c0,0,0,0,0,0c0-0.2,0-0.4,0-0.6c0-0.5,0-1.1,0-1.6c0-0.7,0-1.4,0-2.1c0-0.4,0-0.7,0-1.1L574.8,233z"/>
<path id="path2563" d="M587.6,228.6c0-0.1,0-0.2,0-0.3c0,0,0,0,0,0c0,0,0,0,0,0c0,0,0,0,0,0c0.5-0.3,0.6-0.5,0.5-0.3
	c0,0,0,0.1,0,0.1l-0.6,0.3c0,0,0-0.1,0-0.1c0-0.3,0.6-0.6,0.7-0.3c0,0.1,0.1,0.2,0.1,0.3L587.6,228.6z"/>
<path id="path2565" d="M590.6,224.3c0.1,0,0.1,0,0.2,0c0,0,0,0,0,0c0,0,0,0,0,0c0,0,0,0,0,0c0.1,0,0.1-0.1,0.2-0.1
	c0.1,0,0,0,0.1-0.1c0,0,0.1,0,0,0c-0.3,0.2-0.2,0.1-0.1,0c0.1-0.1,0.2-0.1,0.3-0.2c0.1,0-0.1,0.1-0.2,0.1c0,0,0,0,0,0
	c0.1-0.1,0.2-0.1,0.3-0.2c0.1,0,0.1,0-0.1,0.1c0,0,0,0,0,0c0,0,0.1,0,0.1-0.1c0.1,0,0.1-0.1,0.2-0.1c0.1-0.1,0.2-0.1,0.3-0.2
	c0,0,0,0,0,0c0,0,0,0,0,0c-0.1,0-0.1,0.1-0.2,0.1c0,0,0,0,0,0c0.8-0.4-0.1,0.1,0.1,0c0.1,0,0.2-0.1,0.2-0.1c-0.4,0.2-0.2,0.1-0.1,0
	c0.1,0,0.2-0.1,0.2-0.1c0,0,0,0,0,0c0,0,0,0,0,0c0,0,0,0,0,0c-0.3,0.2-0.2,0.1-0.2,0.1c0.1-0.1,0.2-0.1,0.3-0.2c0,0,0,0,0,0
	c0,0,0,0,0,0c-0.1,0-0.1,0.1-0.2,0.1c0,0,0,0,0,0c0.8-0.4-0.1,0,0,0c0.1,0,0.2-0.1,0.2-0.1c0.1,0-0.1,0.1-0.2,0.1c0,0,0,0,0,0
	c0,0,0.1-0.1,0.1-0.1c0.1-0.1,0.5-0.3,0,0c0,0,0,0,0,0c0,0,0,0,0,0c0,0,0-0.1,0-0.1c0,0,0,0,0,0c0,0,0,0,0,0c0,0,0,0,0,0
	c0,0,0,0,0,0c0,0-0.1,0-0.1,0c0.3-0.3,0.2-0.1,0.1-0.1c-0.1,0-0.2,0.1-0.2,0.1c0,0,0,0,0,0c0,0-0.1,0-0.1,0c0,0-0.1,0-0.1,0.1
	c-0.1,0-0.3,0.2,0.1-0.1c0,0-0.1,0.1-0.1,0.1c-0.1,0.1-0.2,0.1-0.3,0.2c-0.1,0,0.1-0.1,0.2-0.1c-0.1,0.1-0.2,0.1-0.3,0.2
	c0,0-0.1,0-0.1,0c0,0-0.1,0-0.1,0c0,0-0.1,0-0.1,0c0,0-0.1,0-0.1,0c0,0-0.1,0,0,0c0.4-0.2,0,0-0.1,0.1c-0.1,0.1,0.1-0.1,0.1-0.1
	c0,0,0,0,0,0c0,0-0.1,0-0.1,0.1c-0.1,0.1-0.2,0.1-0.3,0.2c0.1,0,0.3-0.1,0.2-0.1c-0.1,0-0.2,0.1-0.2,0.1c0,0,0,0,0,0
	c0.3-0.2,0.2-0.1,0.2-0.1c0,0-0.1,0-0.1,0.1c0,0,0,0.1-0.1,0.1c0,0-0.1,0.1-0.1,0.1c0,0,0,0,0,0c0,0,0,0,0,0
	C590.6,224.4,590.6,224.5,590.6,224.3c0.1,0,0.2,0,0.2-0.1c0.1-0.1,0.3-0.2,0.4-0.2c0,0,0.1,0,0,0c-0.1,0-0.1,0.1-0.2,0.1
	c0.1-0.1,0.3-0.1,0.4-0.2c0,0,0,0,0,0c-0.1,0-0.1,0.1-0.2,0.1c0,0,0,0,0,0c0.1,0,0.5-0.3,0,0c0,0,0.1,0,0.1-0.1c0,0,0,0,0-0.1
	c0-0.1-0.3,0.1,0.2-0.1c0,0,0,0,0,0c0,0,0,0,0,0.1c0,0.1,0,0.2,0,0.3c0,0,0,0,0,0c0,0,0,0,0,0c0,0,0,0,0,0c-0.1,0-0.1,0.1-0.2,0.1
	c0,0,0,0,0,0c0,0,0,0,0,0c0,0,0-0.1,0-0.1c0,0,0-0.1,0-0.1c0,0,0-0.1,0-0.1c0,0,0-0.1,0-0.1c0,0,0-0.1,0.1-0.1c0,0,0-0.1,0.1-0.1
	c0.1-0.1,0.2-0.2,0.3-0.2c0,0,0,0,0,0c0,0,0.1,0.1,0.1,0.1c0,0.1,0,0.1,0.1,0.2c0,0,0,0.1,0.1,0.1c-0.3,0.2-0.2,0.2-0.2,0.1
	c0,0,0-0.1,0-0.1c0-0.1,0-0.1,0-0.2c0,0,0-0.1,0-0.1c0.1-0.1,0.2-0.2,0.3-0.1c0,0,0,0.1,0.1,0.1c0,0,0,0,0,0c0,0,0,0,0,0
	c-0.3,0.2-0.2,0.2-0.2,0.1c0,0,0-0.1,0-0.1c0,0,0-0.1,0.1-0.1c0,0,0-0.1,0.1-0.1c0,0,0,0,0,0l0.2-0.1c0,0,0,0,0,0c0,0,0,0.1-0.1,0.1
	c0,0,0,0,0,0c0,0,0,0,0,0.1c0,0,0,0.1,0,0.1c-0.1,0.1-0.2,0.2-0.3,0.1c0,0,0-0.1-0.1-0.1c0,0,0,0,0,0c0,0,0,0,0,0
	c0.3-0.2,0.3-0.2,0.2-0.1c0,0,0,0.1,0,0.1c0,0.1,0,0.1,0,0.2c0,0,0,0.1,0,0.1c0,0,0,0,0,0c-0.1,0-0.1,0.1-0.2,0.1
	c-0.1,0-0.1-0.1-0.1-0.1c0-0.1,0-0.1-0.1-0.2c0,0,0-0.1-0.1-0.1c0,0,0,0,0,0c0,0,0,0,0,0c0.4-0.2,0.2-0.1,0.2-0.1c0,0,0,0.1-0.1,0.1
	c0,0,0,0.1-0.1,0.1c0,0,0,0.1,0,0.1c0,0,0,0.1,0,0.1c0,0,0,0.1,0,0.1c0,0,0,0.1,0,0.1c0,0,0,0,0,0c-0.1,0.1-0.2,0.2-0.2,0.1
	c0-0.1,0-0.2,0-0.3c0,0,0-0.1,0-0.1c0.1,0,0.1-0.1,0.2-0.1c0,0,0,0,0,0c0,0,0,0.1,0,0.1c0,0,0,0,0,0c0,0,0,0,0,0
	c-0.3,0.2-0.3,0.2,0,0c0,0,0,0,0,0c0,0,0,0,0,0c-0.2,0.1-0.2,0.1-0.3,0.1c-0.1,0-0.3,0.2,0,0c-0.1,0-0.2,0.1-0.2,0.1c0,0,0,0,0,0
	c0.1,0,0.1-0.1,0.2-0.1c0,0,0,0,0,0c-0.1,0.1,0,0-0.1,0.1c-0.1,0-0.1,0.1-0.1,0.1c0,0,0,0-0.1,0c0,0,0,0,0,0c-0.1,0.1,0,0-0.2,0.1
	c0,0,0,0,0,0c0,0,0,0,0,0C590.6,224.4,590.7,224.4,590.6,224.3C590.7,224.3,590.7,224.4,590.6,224.3c0.1,0,0.1,0,0.1-0.1
	c0,0,0,0,0,0c0,0,0,0,0-0.1c0,0,0.1-0.1,0.1-0.1c0.1-0.1,0.2-0.1,0.3-0.2c0,0,0,0,0,0c-0.1,0-0.3,0.1-0.2,0.1c0.1,0,0.2-0.1,0.2-0.1
	c-0.4,0.2-0.2,0.1-0.1,0c0,0,0.1,0,0.1-0.1c0.1-0.1,0.2-0.1,0.3-0.2c0,0,0,0,0,0c0.1-0.1,0,0-0.2,0.1c0,0,0,0,0,0
	c0.1-0.1,0.2-0.1,0.3-0.2c0,0,0.1,0,0.1,0c0,0,0.1,0,0.1,0c0,0,0.1,0,0.1-0.1c0,0,0.1,0,0.1,0c0.1,0,0.3-0.1-0.1,0.1
	c0.1,0,0.2-0.1,0.2-0.1c0.1,0-0.1,0.1-0.2,0.1c0,0,0,0,0,0c0,0,0,0,0.1,0c0,0,0.1-0.1,0.1-0.1c0.1-0.1,0.2-0.1,0.3-0.2
	c0,0,0.1,0,0.1-0.1c0.1,0,0.3-0.1-0.1,0.1c0,0,0,0,0,0c0,0,0,0,0,0c0.1-0.1,0.1-0.1,0.3-0.2c0,0,0.1,0,0.1,0c0,0,0.1,0,0.1,0
	c0,0,0,0,0,0c0,0,0,0,0,0c0,0,0,0,0,0c0,0,0,0,0,0c-0.1,0-0.2,0.1-0.2,0.1c-0.1,0,0.1-0.1,0.2-0.1c0,0,0,0,0,0c0,0-0.1,0-0.1,0.1
	c-0.1,0.1,0.2-0.1-0.2,0.2c-0.1,0,0.2-0.1,0.2-0.1c-0.8,0.5,0.1-0.1-0.1,0c-0.1,0-0.2,0.1-0.2,0.1c0,0-0.1,0-0.1,0c0,0,0,0,0,0
	c0.1,0,0.1-0.1,0.2-0.1c0,0,0,0,0,0c-0.1,0-0.2,0.1-0.2,0.1c0,0,0,0,0,0c0,0,0,0,0,0c0.1,0,0.1-0.1,0.2-0.1
	c-0.1,0.1-0.2,0.1-0.3,0.2c0.1,0,0.1-0.1,0.2-0.1c0,0,0,0,0,0c-0.1,0-0.2,0.1-0.2,0.1c-0.1,0,0.1-0.1,0.2-0.1c0,0-0.1,0,0,0
	c-0.1,0-0.2,0.1-0.2,0.1c0,0,0,0,0,0c-0.1,0-0.3,0.2,0.2-0.1c0,0-0.1,0,0,0c-0.1,0-0.1,0.1-0.2,0.1c-0.1,0.1-0.3,0.2-0.4,0.2
	c-0.1,0.1-0.1,0,0.2-0.1c0,0,0,0,0,0c0,0,0,0,0,0c0,0,0,0,0,0c-0.1,0.1-0.5,0.3-0.1,0c0,0,0,0,0,0c-0.1,0,0,0-0.1,0
	c-0.1,0.1-0.3,0.2-0.4,0.3c-0.1,0-0.2,0.1-0.3,0.1c0,0-0.1,0-0.1,0c0,0-0.1,0-0.1,0L590.6,224.3z"/>
<path id="path2567" d="M592.7,223.3C592.6,223.3,592.3,223.5,592.7,223.3c-0.1,0.1-0.3,0.2-0.4,0.3c-0.1,0.1-0.2,0.1-0.2,0.2
	c-0.1,0-0.1,0.1-0.1,0.2c0,0-0.1,0.1-0.1,0.1c0,0-0.1,0.1-0.1,0.1l-0.2,0.1c0,0,0.1-0.1,0.1-0.1c0,0,0.1-0.1,0.1-0.1
	c0-0.1,0.1-0.1,0.1-0.2c0.1-0.1,0.1-0.1,0.2-0.2c0.1-0.1,0.2-0.2,0.3-0.2C592.5,223.3,592.6,223.3,592.7,223.3
	c0.1-0.1,0.1-0.1,0.2-0.2L592.7,223.3z"/>
<path id="path2583" d="M592.5,226.3c-0.7,0.1-1.4,0.2-2.1,0.3c-0.6,0.1-1.2,0.3-1.8,0.4c-0.5,0.2-1,0.3-1.6,0.5
	c-0.5,0.1-1.1,0.3-1.6,0.6c-0.3,0.2-0.7,0.2-1.1,0.4l3.1-2.4c0.4-0.1,0.7-0.2,1.1-0.4c0.5-0.2,1.1-0.4,1.6-0.5
	c0.5-0.2,1.1-0.3,1.6-0.4c0.6-0.1,1.2-0.3,1.8-0.4c0.7-0.1,1.5-0.2,2.2-0.3L592.5,226.3z"/>
<path id="path2585" d="M591.7,226.7c-0.7,0.2-1.3,0.5-1.9,0.8c-0.6,0.2-1.2,0.4-1.8,0.6c-0.1,0-0.2,0-0.3,0.1
	c-0.1,0-0.2,0.1-0.2,0.1c-0.1,0-0.2,0-0.3,0.1c-0.3,0.1-0.5,0.1-0.8,0.2c-0.5,0.2-1,0.4-1.6,0.6c-0.3,0.2-0.2,0.1-0.5,0.2l3.1-2.4
	c0.4-0.2,0.2-0.1,0.5-0.2c0.5-0.2,1.1-0.4,1.6-0.5c0.5-0.1,1.1-0.3,1.6-0.4c0.6-0.2,1.2-0.4,1.7-0.6c0.7-0.3,1.3-0.5,2-0.8
	L591.7,226.7z"/>
<path id="path2587" d="M590.7,227.3c-0.1,0-0.1,0-0.2,0c-0.1,0-0.1,0-0.2,0c-0.3,0.1-0.6,0.2-0.9,0.3c-0.2,0.1-0.5,0.2-0.7,0.4
	c0,0-0.1,0.1-0.1,0c0,0,0.2-0.1,0.1-0.1c-0.1,0-0.2,0.1-0.3,0.1c-0.1,0,0.1-0.1,0.2-0.1c0,0,0,0,0,0c0,0,0,0,0,0c0,0,0,0,0,0
	c0,0,0.1,0,0.1,0c0.2,0,0.4-0.1,0.5-0.2c0.3-0.1,0.6-0.2,0.9-0.4C590.4,227.4,590.5,227.3,590.7,227.3c0.2-0.2,0.4-0.3,0.6-0.4
	c0,0,0,0,0,0c-0.1,0-0.1,0.1-0.2,0.1c0,0,0,0,0,0c0,0,0,0-0.1,0c0,0-0.1,0-0.1,0c0,0-0.1,0-0.1,0c-0.1,0-0.1,0-0.2,0.1
	c-0.1,0-0.2,0.1-0.2,0.1c-0.2,0.1-0.4,0.1-0.6,0.2c-0.2,0.1-0.6,0.2-0.7,0.2c-0.6,0.2-1.1,0.4-1.7,0.6c0,0-0.1,0.1-0.1,0
	c0,0,0.1-0.1,0.2-0.1c0,0,0.1,0,0.1,0c0.2,0,0.4-0.1,0.6-0.1c0.3-0.1,0.5-0.1,0.7-0.2c0.1,0,0.2-0.1,0.3-0.1
	c0.2-0.1,0.4-0.2,0.6-0.3c0.1,0,0.2-0.1,0.2-0.1c0.2-0.1,0.4-0.2,0.5-0.3c0.1,0,0.2-0.1,0.3-0.1c0,0,0.1,0,0.1,0
	c0,0.1,0,0.1-0.1,0.1c0,0-0.1,0.1-0.1,0.1c0,0-0.1,0.1-0.1,0.1c-0.1,0-0.1,0.1-0.2,0.1c-0.1,0.1-0.3,0.2-0.4,0.2
	c-0.1,0-0.2,0.1-0.3,0.1c-0.3,0.1-0.6,0.2-0.9,0.4c-0.4,0.1-0.8,0.3-1.2,0.4c0,0,0,0,0,0c0,0,0,0,0,0c0.1-0.1,0.2-0.1,0.3-0.2
	c0,0,0.1,0,0.1-0.1c0.2-0.1,0.2-0.1,0.4-0.2c0.1,0,0.2-0.1,0.3-0.1c0.1,0,0.2-0.1,0.4-0.1c0.5-0.2,0.9-0.3,1.4-0.5
	C590.5,227.3,590.6,227.3,590.7,227.3c0.1-0.1,0.1-0.1,0.2-0.1c0,0,0,0,0,0c0,0,0,0-0.1,0.1C590.8,227.3,590.7,227.3,590.7,227.3
	c-0.1,0.2-0.3,0.2-0.4,0.3c-0.1,0.1-0.5,0.2-0.6,0.3c-0.3,0.1-0.7,0.3-1,0.4c-0.3,0.1-0.7,0.2-1,0.3c-0.2,0.1-0.3,0.1-0.5,0.2
	c0,0,0,0-0.1,0c0,0,0,0,0-0.1c0,0,0.3-0.2,0.3-0.2c0.4-0.2,0.3-0.2,0.7-0.4c0.5-0.2,1-0.4,1.4-0.6c0,0,0.6-0.3,0.7-0.3
	c0.2-0.1,0.4-0.2,0.6-0.2c0,0,0.1,0,0.1,0c0,0,0,0,0,0c0,0,0,0,0,0.1c-0.1,0.1-0.1,0.1-0.3,0.2c-0.1,0.1-0.2,0.1-0.3,0.2
	c-0.5,0.3-0.9,0.5-1.4,0.8c-0.4,0.2-0.8,0.4-1.2,0.6c-0.1,0-0.2,0.1-0.2,0.1c-0.2,0.1-0.1,0.1-0.2,0.1c0.1-0.1,0.2-0.1,0.3-0.2
	c0.1,0,0.2-0.1,0.2-0.1c0.1,0,0.2-0.1,0.3-0.1c0.4-0.1,0.7-0.3,1.1-0.4c0.1,0,0.2-0.1,0.3-0.1c0.2-0.1,0.4-0.2,0.7-0.3
	c0,0,0.1-0.1,0.1-0.1c0,0-0.1,0.1-0.2,0.1c0,0,0,0,0,0c0,0-0.1,0-0.1,0c-0.1,0-0.1,0-0.2,0.1c-0.3,0.1-0.5,0.2-0.8,0.3
	c-0.3,0.1-0.5,0.2-0.8,0.2c-0.1,0-0.2,0.1-0.3,0.1c0,0,0,0,0,0c0,0,0-0.1,0.1-0.1c0.1-0.1,0.2-0.1,0.3-0.2c0.3-0.2,0.7-0.3,1.1-0.5
	c0.2-0.1,0.4-0.2,0.7-0.3c0,0,0.1,0,0.1,0c0,0,0.1,0,0.1,0c0,0,0,0,0,0.1c0,0-0.1,0.1-0.1,0.1c-0.1,0.1-0.4,0.3-0.5,0.3
	c-0.2,0.2-0.5,0.3-0.7,0.5c0,0-0.1,0.1-0.1,0.1c-0.1,0.1-0.2,0.1-0.3,0.2c0,0,0,0,0-0.1c0,0,0.1-0.1,0.1-0.1c0.1,0,0.1-0.1,0.2-0.1
	c0.1-0.1,0.3-0.2,0.4-0.2c0.3-0.2,0.6-0.3,0.9-0.5c0.2-0.1,0.1,0,0.2-0.1c0,0,0,0-0.1,0c-0.1,0-0.1,0-0.2,0.1
	c-0.1,0-0.2,0.1-0.3,0.1c-0.4,0.1-0.8,0.3-1.2,0.5c-0.3,0.1-0.6,0.3-1,0.4c-0.1,0-0.1,0-0.2,0.1c0,0,0,0,0,0
	c0.1-0.1,0.3-0.1,0.4-0.2c0.2-0.1,0.3-0.1,0.5-0.2c0.6-0.2,0.7-0.2,1.3-0.5c0.5-0.2,1-0.4,1.5-0.6c0.1,0,0.2-0.1,0.2-0.1
	c-0.2,0.2-0.4,0.2-0.6,0.3c-0.3,0.1-0.7,0.2-1,0.4c-0.4,0.1-0.8,0.3-1.2,0.4c-0.2,0.1-0.4,0.1-0.6,0.1c0,0-0.1,0-0.1,0
	c-0.1,0-0.2,0,0.1-0.1c0,0,0.1,0,0.1,0c0.1,0,0.1,0,0.2-0.1c0.1,0,0.1-0.1,0.2-0.1c0.1,0,0.2-0.1,0.4-0.1c0.1,0,0.3-0.1,0.4-0.1
	C589.7,227.6,590.2,227.5,590.7,227.3c1-0.3-0.1,0,0.6-0.2c0,0,0.1-0.1,0.1,0c-0.1,0.2-0.2,0.1-0.3,0.2c-0.1,0-0.1,0-0.2,0.1
	c-0.6,0.2-1.2,0.4-1.8,0.6c-0.2,0.1-0.4,0.2-0.7,0.2l0.2-0.1c0.2-0.1,0.4-0.1,0.6-0.2c0.6-0.2,1.2-0.4,1.8-0.6c0.1,0,0.1,0,0.2-0.1
	c0,0,0.1-0.1,0.1,0c-0.1,0.2-0.1,0.1-0.3,0.2c-0.2,0-0.5,0.2-0.6,0.2c-0.5,0.2-1,0.3-1.5,0.5c-0.3,0.1-0.5,0.2-0.8,0.3
	c-0.1,0-0.2,0.1-0.2,0.1c-0.1,0-0.1,0-0.2,0.1c0,0-0.1,0.1-0.1,0c0.1-0.1,0.2-0.1,0.3-0.2c0.2,0,0.4-0.1,0.6-0.1
	c0.4-0.1,0.8-0.3,1.1-0.4c0.3-0.1,0.7-0.2,1-0.4c0.1,0,0.2-0.1,0.3-0.1c0.1,0-0.2,0.2-0.2,0.1c-0.5,0.2-1,0.4-1.5,0.6
	c-0.2,0.1-0.4,0.2-0.7,0.3c-0.2,0.1-0.4,0.2-0.6,0.2c-0.2,0.1-0.3,0.1-0.5,0.2c0,0,0,0,0,0c0,0,0,0,0,0c0.4-0.1,0.7-0.3,1.1-0.4
	c0.2-0.1,0.6-0.3,0.8-0.3c0.1-0.1,0.3-0.1,0.4-0.1c0.1,0,0.2-0.1,0.3-0.1c0.1,0,0.1-0.1,0.2-0.1c0,0,0.1,0,0.1,0
	c-0.1,0.1,0,0-0.2,0.1c-0.1,0-0.2,0.1-0.2,0.1c-0.3,0.2-0.7,0.4-1,0.6c-0.1,0.1-0.2,0.1-0.3,0.1c0,0-0.1,0.1-0.1,0.1c0,0,0,0-0.1,0
	c0,0-0.2,0.1-0.1,0.1c0,0,0.1-0.1,0.1-0.1c0.4-0.3,0.8-0.6,1.3-0.9c0,0,0.1,0,0,0c0,0,0,0-0.1,0c0,0-0.1,0-0.1,0
	c-0.1,0-0.3,0.1-0.4,0.1c-0.1,0-0.2,0.1-0.3,0.1c-0.2,0.1-0.4,0.2-0.6,0.3c-0.1,0-0.2,0.1-0.3,0.1c-0.1,0-0.1,0.1-0.2,0.1
	c0,0,0.2-0.1,0,0c0,0,0,0,0,0c0.1,0,0.2,0,0.3-0.1c0.3-0.1,0.5-0.1,0.8-0.2c0.3-0.1,0.6-0.2,0.8-0.3c0.1,0,0.1,0,0.2-0.1
	c0,0,0.1,0,0.2,0c0,0,0,0,0.1,0c-0.1,0-0.2,0.1-0.2,0.1c0,0-0.1,0-0.1,0c-0.1,0-0.1,0-0.2,0.1c-0.3,0.1-0.5,0.2-0.8,0.3
	c-0.4,0.1-0.7,0.3-1.1,0.4c-0.1,0-0.2,0.1-0.3,0.1c-0.1,0-0.2,0.1-0.3,0.1c0,0,0.1-0.1,0.1-0.1c0,0.1,0,0,0.1-0.1
	c0.1,0,0.2-0.1,0.2-0.1c0.4-0.2,0.8-0.4,1.2-0.5c0.4-0.2,0.5-0.2,0.9-0.5c0.1,0,0.2-0.1,0.2-0.1
	C590.3,227.4,590.4,227.3,590.7,227.3C590.6,227.2,590.6,227.2,590.7,227.3c0-0.1,0-0.1-0.1-0.1c0,0-0.1,0-0.1,0
	c-0.2,0.1-0.4,0.1-0.5,0.2c-0.2,0.1-0.5,0.2-0.7,0.3c-0.5,0.2-1,0.4-1.5,0.7c-0.1,0-0.2,0.1-0.3,0.1c0,0,0,0,0,0
	c-0.1,0-0.1,0.1-0.2,0.1c0,0-0.1,0-0.1,0.1c0,0,0,0,0,0c0,0,0,0,0,0c0.2-0.1,0.3-0.1,0.5-0.2c0.3-0.1,0.6-0.2,1-0.3
	c0.4-0.1,0.7-0.3,1.1-0.4c0.5-0.2,0.1-0.1,0.6-0.3c0,0,0,0,0,0C590.5,227.4,590.6,227.4,590.7,227.3
	C590.6,227.4,590.6,227.4,590.7,227.3C590.7,227.3,590.7,227.3,590.7,227.3C590.6,227.4,590.6,227.4,590.7,227.3
	c-0.2,0.1-0.3,0.2-0.4,0.2c-0.7,0.2-1.4,0.5-2,0.7c-0.2,0.1-0.3,0.1-0.5,0.2c0,0-0.1,0.1-0.1,0.1c0-0.1,0.1,0,0.1-0.1c0,0,0,0,0,0
	c0,0,0,0,0,0c0.4-0.1,0.8-0.3,1.1-0.4c0.3-0.1,0.6-0.2,0.9-0.4c0.1,0,0.2-0.1,0.3-0.1c0,0,0,0,0,0c0.1,0,0.1-0.1,0.2-0.1
	c0,0,0.1-0.1,0.1-0.1c0,0,0.1,0,0.1-0.1c0,0,0,0,0.1,0c0,0,0,0,0,0c0,0,0,0,0,0c-0.1,0-0.2,0.1-0.2,0.1c-0.2,0.1-0.3,0.2-0.5,0.3
	c-0.1,0-0.2,0.1-0.2,0.1c-0.2,0.1-0.4,0.2-0.6,0.2c-0.1,0-0.2,0.1-0.3,0.1c-0.1,0-0.2,0.1-0.4,0.1c-0.1,0-0.3,0.1-0.4,0.1
	c-0.1,0-0.4,0.1-0.6,0.1c0,0-0.1,0-0.1,0c0,0-0.1,0-0.1,0c0.1-0.1,0.2-0.1,0.2-0.1c0,0,0.1,0,0.1,0c0.5-0.2,1.1-0.4,1.6-0.6
	c0.2-0.1,0.5-0.2,0.7-0.3c0.2-0.1,0.5-0.2,0.6-0.2c0.1,0,0.2-0.1,0.3-0.1c0.1,0,0.1,0,0.2-0.1c0.1,0,0.2-0.1,0.3-0.1c0,0,0,0,0.1,0
	c0,0,0.1,0,0,0c-0.1,0.1-0.2,0.1-0.2,0.1c-0.2,0.1-0.4,0.2-0.6,0.3c-0.1,0.1-0.2,0.1-0.4,0.2c-0.3,0.2-0.6,0.3-0.9,0.4
	c0,0-0.4,0.1-0.4,0.1c0,0-0.1,0-0.1,0c0,0-0.1,0-0.2,0c0,0,0,0,0,0c0,0,0,0,0,0c0.1,0,0.2-0.1,0.2-0.1c0.1,0-0.2,0.1-0.2,0.1
	c0.4-0.2,0.2-0.1,0.3-0.2c0.2-0.1,0.5-0.3,0.7-0.4c0.3-0.1,0.6-0.3,0.9-0.3c0.1,0,0.1,0,0.2,0c0.1,0,0.1,0,0.2,0L590.7,227.3z"/>
</svg>
