<?xml version="1.0" encoding="utf-8"?>
<!-- Generator: Adobe Illustrator 27.7.0, SVG Export Plug-In . SVG Version: 6.00 Build 0)  -->
<svg version="1.1" id="Layer_1" xmlns="http://www.w3.org/2000/svg" xmlns:xlink="http://www.w3.org/1999/xlink" x="0px" y="0px"
	 viewBox="0 0 1088.9 363.1" style="enable-background:new 0 0 1088.9 363.1;" xml:space="preserve">
<path d="M607.4,77.8c-9.1,4-13.4,13.6-16.6,22.4c-12.4,28.6-24.9,57.1-38.7,85c-2.7,7.7-3.7,15.9-5.1,23.9
	c-0.6,5.3,1.1,11.8,6.3,14.3c6.2,1.6,11.5-2.9,16.4-6c4.1-2.9,8.2-6.6,9.6-11.6c-0.5-4.1-7.1-3.6-8.2-0.1c-2.4,3.6-9.5,3.6-10.3-1.3
	c-1.3-5.8,2.3-11,3.5-16.5c4.9-14.5,10.6-28.8,16-43.1c3.5-4.8,10.5-5.9,13-11.6c5.9-8.6,14.8-14.9,19.3-24.4
	c3.3-7.4,5.4-16.4,1.5-24C613,82,611.3,77.4,607.4,77.8L607.4,77.8z M505.4,81.2c-4,3.2-2.5,8.8-2.4,13.2
	c0.1,10.3,2.3,20.7-0.1,30.8c-4,11.4-12.3,20.5-19.3,30.2c-2.3,2.8-6.4,0.4-7-2.6c-2.2-8.8-4.8-17.8-10-25.4
	c-2.1-2.4-4.3-7.9-8.3-5.7c-3.8,2.4-2.5,7.2-1.9,10.9c1.6,12.5,4.7,24.6,7.3,36.9c0.7,4.4-2.3,7.8-4.9,10.9
	c-4.6,5.7-9.1,11.4-13.7,17c-3.3,2.2-6.2,5.1-6.3,9.3c-1.5,5.5-4.5,11.6-2.1,17.3c2.4,5.1,9.3,4.8,13.7,2.7
	c8.8-4.3,14.5-13,19.2-21.3c6.6-11.9,9.2-25.3,12-38.4c5.5-6,12.5-10.6,16.5-17.8c5.7-8.2,11-16.6,15.7-25.4
	c1.3-7.5,0.7-15.3,0.6-22.9c0.2-4-0.3-7.9-2.3-11.5C510.5,86.5,509,81.6,505.4,81.2L505.4,81.2z M605.8,86.7
	c4.1,3.2,3.1,9.1,1.8,13.4c-2.1,7.1-6,13.7-11.7,18.5c-0.8,4.3-7.9,1.7-4.8-2c2.5-7.4,5.8-14.6,8.9-21.8
	C601.6,92.1,602.9,88.1,605.8,86.7L605.8,86.7z M341.4,102.4c-4.9,0.1-10.3,0.3-14.2,3.6c-1.4,4.4,4.6,5.3,7.7,5.3
	c8.7,0.8,17.1,3.2,25.3,6.1c4.2,4.8,10,7.9,14.9,12c1.4,3.6-2.6,5.9-4.8,8.1c-7,7.5-15.1,14.4-19.1,24.1
	c-8.2,15.7-13.9,32.7-23.5,47.7c-2.4,4.3-5.3,9.8-10.9,9.8c-5.8,0.2-11.6-1.6-17.4-1.3c-8.5-0.2-17.2,0.4-25.1,3.7
	c-3.3,2.2-3.8,6.4-5.3,9.8c0,7.8,8.3,13.1,15.5,12.5c10.9,0.6,21.4-3.2,32-5.1c9.7-0.5,19.4,2.1,29.2,0.9
	c15.5-1.3,30.3-7.9,42.5-17.3c8.2-7.2,14.6-16.3,19.9-25.7c6.4-12.2,9.1-26.7,5.1-40.1c-3.1-13.5-8.3-27.5-19.5-36.3
	c-6.7-5.6-15.4-7.5-23.1-11.1C361.3,105,351.5,101.8,341.4,102.4L341.4,102.4z M985.7,103.3c-5.4,1.8-6.5,8.1-7.4,13
	c-1.1,3.2-0.7,9.6,4,8.7c4.8-1.8,8.3-6.4,13.6-7.1c2.9-0.9,6.6,1.1,5.5,4.6c-1.3,4.6-5.7,7.1-8.5,10.6c-5.6,5.8-11.2,11.7-17.1,17.3
	c-3.1,1.1-8.4,2.4-7.6,6.7c1.2,3.4,5.7,2.6,8.3,1.6c3.5-1.5,8.6-3.5,11.5,0.1c3.8,5.7,1.4,12.8-0.3,18.7
	c-4.7,13.2-13.1,24.9-23,34.7c-9.5,7.3-22.2,7.8-33.7,7.9c-8.1-0.2-16-1.7-23.9-3.4c-4-0.4-6.3,6.4-2.2,7.9c7.9,4.7,17,7,26,8.3
	c9.5,1,19.3,0.9,28.6-1.3c5.5-2.2,10.6-5.3,15.2-9.1c5.3-5.4,9.5-11.8,14.7-17.3c10.6-12.2,19.4-26.3,23.2-42.1
	c1.1-5.3,1.9-11.4-1.6-16.1c-2-3.6-5.3-6.3-7.2-9.9c-1.2-5.1,3.6-8.9,6.5-12.4c2.9-3.3,6-6.5,8.3-10.2c0.7-4-3.9-6.6-7.4-5.9
	C1002.4,108.3,994.6,102.8,985.7,103.3L985.7,103.3z M945.4,114c-8,1.2-14.5,6.8-18.6,13.4c-5.5,7.1-10.1,14.9-13.1,23.4
	c-0.6,5.6,4.8,9.1,8.8,11.9c6.7,4.6,16,3.5,22.4-1.2c4.7-2.6,9.7-5.8,11.5-11.2c0.5-4.6-5.7-4.1-6.9-0.6c-3.6,2.6-8.1,3.6-12.3,4.5
	c-4.3,0-5.3-6.2-1.4-7.8c3.4-2.3,7.4-3.8,10-7.1c3.6-3.6,7.5-7.1,10.1-11.4c2.3-4.9,0.6-12.4-5.3-13.6
	C948.7,113.7,947,113.7,945.4,114L945.4,114z M903.1,122c-7.1,5.9-10.5,15.4-18.7,20.2c-9.5,7.5-19.2,14.7-29.6,20.8
	c-4,1.3-7.7-3.9-5.6-7.3c2.3-7.3,7.8-13.5,8.9-21.3c-0.2-4.5-7.3-4.2-8.1-0.1c-3,7.5-7.1,14.6-9.6,22.2c-2.9,8.1,6.6,17.5,14.6,14
	c6.9-2.5,12.8-7,18.8-11.1c3.9-4.5,5.4-4.1,7.1,0.5c-1,3.7-3.7,8.1-1,11.6c3,4.9,10,6.1,14.9,3.7c3.7-0.2,7.2-5.4,3.8-8.2
	c-3.2-2.7-5.1-7.4-3.1-11.4c2.8-10.5,7.4-20.5,9.9-31.1C905.5,123.4,904.7,121.4,903.1,122L903.1,122z M194.2,122.6
	c-11.4,0.9-22.6,3-33.8,4.8c-3.9,2.4,0.2,8.4,4.1,6.8c9.3-0.4,18.7-1.1,28-0.8c7.8,0.3,15.2,3.2,21.3,8.1c5.4,4,10.2,8.6,15.5,12.7
	c2.6,3.1-0.2,7.3-2.9,9.3c-9.1,8.2-16.3,18.4-25.4,26.7c-14.9,18.6-33.8,33.5-52.8,47.7c-5.5,3.4-12.5,3.9-18.6,2
	c-14.1-2.3-28.4-3.4-42.7-3.5c-5-0.1-10.3,2-13,6.5c-2.3,3-3,6.8-0.8,10c1.9,4.2,5.6,8,10.4,8.3c10.6,2.2,21.6,5.1,32.5,3.2
	c9.6-2.4,18.7-9,29-7.1c13.6,1.9,27.6,4.2,41.3,1.4c9.9-1.7,19.8-3.6,29.7-5.1c8.3-2.6,14.3-9.5,20.6-15.1
	c6-5.3,11.1-11.5,16.2-17.6c3-3.9,3-9.2,4.2-13.8c2.4-13.3,3.3-27.3,0-40.6c-1.7-5.2-4.4-11.5-0.7-16.5c3.1-4.8,8.5-7.9,10.6-13.3
	c0.7-3.9-5-5.6-7.2-2.7c-4.6,3-8,9-14.2,8.6c-5.6-1.1-9.7-5.6-14.9-7.8C219.4,128.7,207.4,121.8,194.2,122.6L194.2,122.6z
	 M946,123.5c3.2,2.9-0.1,7.6-3.4,8.6c-2.8,1.9-4.9,5.3-8.6,5.5c-3.2-2.4-0.4-6.8,2.3-8.3c2.8-2.4,5.4-5.5,9.2-6.2L946,123.5z
	 M730.2,132.2c-9.6,0.6-17.3,7.1-24.3,13c-14.8,12.6-25.8,28.9-37.6,44.2c-8.2,14.7-13.5,30.9-17.4,47.2c-2,7.3-4.2,14.9-9.5,20.5
	c-4.4,5.1-10.2,9.4-16.8,11c-4.6,0.3-6.3-4.6-5-8.3c0.2-4.3-5.5-5.5-7.7-2.2c-2.4,4.1-6.4,7.7-6.3,12.8c0.2,4.8,4.9,7.9,9,9.3
	c9.4,2.8,19-1.7,26.9-6.6c7.1-4.3,13.1-10.1,18.3-16.5c3.1-4.8,5.2-10.3,9-14.7c5.2-7.4,5.8-16.7,8.6-25c2.7-8.5,5.3-16.9,7.8-25.4
	c6-16,16.6-29.8,28.5-42c3.9-3.7,8-7.7,13-9.6c2.9-0.3,8.3-0.8,7.4-5C733.7,133.3,732,131.9,730.2,132.2L730.2,132.2z M759.5,148.6
	c-4.4,1.9-8.4,5.2-10.4,9.7c-2.8,4.4-5.8,8.8-8.3,13.5c-3.3,2.4,0.5,6.6,3.5,7c4,1.9,7.7,4.9,12.4,4.9c9.3,1.2,18.6-1.6,26.9-5.6
	c4.7-0.1,3.8,6.2,2.4,9c-3.3,12.3-5.9,24.9-8.1,37.4c-0.6,6.1-1.8,12.8,0.9,18.5c2.2,3.7,7.5,1.5,8.8-1.7c3.6-7.1,5.3-14.9,6.1-22.7
	c1.5-12.2,3.7-24.3,5.8-36.5c2-10.7,4.3-21.3,7.2-31.8c0.5-4.2-4.3-7.5-8.1-6.5c-3.9-0.3-5.7-0.6-10.2-2.8
	C784.3,142.2,767.9,142.4,759.5,148.6L759.5,148.6z M384.9,140.8c6.3,4,7.1,12.1,10.2,18.3c4,9.6,4.6,21-0.2,30.5
	c-1.6,5.3-2.7,10.9-6.6,15.1c-6,8.7-14.5,17-25.4,18.5c-7.8,1.5-15.8,1.5-23.6,1c-4-0.9-4.1-7.2-0.5-8.8c5.8-4.3,7.9-11.6,11.8-17.4
	c4.3-7,8.3-14.4,10.2-22.5c3.3-9.4,7.5-18.6,13.6-26.5c2.7-3.2,5.8-6.4,9.7-8.1l0.4,0L384.9,140.8z M780.2,150.3
	c4.6,0.5,8.9,2.1,13.3,3.5c-0.1,6.7-6.3,10.7-10.9,14.5c-7.5,6-17.6,8.3-27.1,7.3c-2.9-0.5-5.6-3.6-4.1-6.5c1.8-4.4,5.8-7.3,9-10.7
	C765.7,153.4,772.8,149.9,780.2,150.3L780.2,150.3z M630,157.4c-3.8,0.3-7.7-0.2-11.5,0.4c-4,0.8-5.1,5.1-7.7,7.6
	c-6.1,7.4-13.6,15.1-14.3,25.2c-0.6,4.8,3.9,9.1,8.6,8.8c5.6-0.5,10.7-3.4,15.9-5.5c3.4-1.2,6.6-3.9,10.4-3.8
	c5.3,1,7.9,7.5,13.6,7.6c4.7,0.3,8.8-2.8,12.1-5.7c3.1-2.6-0.3-7.8-3.8-5.4c-2.7,1.4-6.5,3.7-8.9,0.5c-2.9-3.7-0.3-8.4,0.7-12.4
	c1.6-4.2,2.4-8.8,4.6-12.8c1.7-4.6-4.6-4.1-7.3-4.2C638.2,157.5,634.1,157.3,630,157.4L630,157.4z M534.4,160.5
	c-5,0.2-8.9,5.1-8.7,10c-1.3,7.1-6.2,13-11.9,17.1c-2.9,1.9-2.8,7.4,1.5,6.8c4.2-0.9,6.5-5,9.5-7.6c5.8-6.3,10.8-13.5,13.3-21.7
	C538.3,162.9,536.9,160,534.4,160.5L534.4,160.5z M634.8,165.1c3.6,1.3,4.1,7,0.9,9.1c-6.7,7.7-16.6,11-25.3,15.8
	c-3.5,1.6-7.7-3.4-4.9-6.3c3.7-5.9,9.1-10.5,14.1-15.2C624.1,165.5,629.7,164.6,634.8,165.1L634.8,165.1z M237.3,169.6
	c3.9,3.2,2.1,8.8,1.6,13.1c-1.7,13.6-5.5,26.9-11.4,39.3c-2.6,3.1-5.4,6.1-6.2,10.1c-3.9,8-13,11.4-21.2,13.3
	c-9.2,2-18.7,3.5-28,1.9c-3.7-1-8.3,0.1-11.4-2.3c-1.7-3.1,2.2-5.4,4.3-6.8c16.3-13.5,32.4-27.3,46.3-43.3
	c7.8-8.6,15.5-17.3,24.2-25C236.2,169.7,236.8,169.4,237.3,169.6L237.3,169.6z M507.8,173.9c-2.8,2-4.9,5.1-7.1,7.8
	c-6.6,8.9-11.1,19.3-14.4,29.8c-1.2,5.4,0.6,11.7,5.6,14.5c4.5,3.2,10.2,4.2,15.7,3.9c4.2-1.6,2.7-7.4,0-9.7
	c-4-4.8-7.5-10.8-6.3-17.3c0.8-9.7,6.2-18.2,8.5-27.5C509.7,174.4,508.9,173.4,507.8,173.9L507.8,173.9z M463.3,187.4
	c-0.7,8.3-3.7,16.3-8.2,23.3c-3,2.5-8.5-1.6-5.9-5.1c2.9-5.8,6.6-11.3,10.8-16.2C460.9,188.6,462,187,463.3,187.4L463.3,187.4z
	 M89.1,246.4c8.3,1.3,17-0.9,25,2.1c3.1-0.6,8.2,4,3.9,6c-4.8,1.7-9.9,0.4-14.9,0.3c-5.8-0.6-11.9-1.1-17.1-3.8
	C84.3,249.1,86.9,246.1,89.1,246.4L89.1,246.4z"/>
</svg>
