<?xml version="1.0" encoding="UTF-8"?>
<svg id="Layer_1" data-name="Layer 1" xmlns="http://www.w3.org/2000/svg" viewBox="0 0 1088.9 363.1">
  <path d="m235.12,271.34c29.58-34.3,114.84-120.56,119.32-120.56,2.49,0,5.97,3.98,5.97,6.46,0,.75-.75,2.24-1.49,2.98-.75.99-2.98,3.23-4.72,5.47l-3.48,3.73,10.94-5.22c10.94-5.22,29.08-11.43,39.03-13.42,6.71-1.49,9.45-.5,12.18,4.72,2.24,4.23,2.24,6.71-.5,11.93-1.24,2.49-2.24,4.72-2.24,4.72.25.25,20.14-4.47,44-10.44,45.99-11.43,46.73-11.68,46.73-5.72,0,2.24-1,3.23-5.97,4.97-10.94,4.23-63.39,17.4-84.27,21.63-9.69,1.74-10.94,2.49-18.15,8.45-9.69,8.2-18.4,13.42-27.34,16.41-8.7,2.98-13.92,2.24-17.9-2.73-5.47-6.46-3.48-11.68,7.21-16.9,4.97-2.73,31.32-10.44,34.55-10.44,2.24,0,6.96-4.72,12.43-11.93l3.23-4.47-3.48.75c-13.17,2.98-32.32,10.44-51.71,20.14l-21.88,10.94-14.92,14.42c-7.95,7.96-26.35,26.85-40.77,42.01-14.42,15.16-29.58,31.32-33.56,35.55-8.45,8.45-11.93,9.69-14.17,4.97-1.49-3.48-.75-4.97,10.94-18.4Z"/>
  <path d="m445.67,218.39c-1.74-7.46,5.47-17.9,18.89-26.85,7.21-4.72,8.7-4.97,10.44-1.74.99,2.24.25,3.48-9.2,12.43-9.94,9.45-14.67,15.66-13.17,17.65.75,1.49,10.94.99,18.15-.75,38.53-10.19,93.96-52.45,93.96-71.84,0-3.23-.5-3.98-4.23-5.72-6.96-2.73-30.08-1.49-43.25,2.49-5.47,1.74-10.69,2.73-11.68,2.49-2.24-.99-4.47-5.72-4.47-9.45,0-2.24,1.49-4.47,6.71-8.95,3.73-3.23,11.68-10.44,17.4-16.16,8.2-7.96,10.69-10.94,10.69-13.42,0-1.74.75-3.48,1.49-4.23,3.23-2.73,57.42-10.44,74.08-10.69,7.46,0,12.18,3.23,11.68,7.95-.25,3.73-.99,3.98-25.11,6.96-10.44,1.49-25.85,3.98-34.55,5.47-13.42,2.73-15.66,3.48-17.65,5.97-1.24,1.74-5.72,6.46-9.94,10.69l-7.46,7.71,12.68.5c18.15.75,25.11,4.23,28.84,14.17,3.98,10.44-1.74,23.12-16.9,38.53-28.84,29.33-78.8,53.94-97.44,48.47-3.98-1.24-8.95-6.96-9.94-11.68Z"/>
  <path d="m613.21,154.72c-.5-4.97-.99-8.95-1.24-8.95s-2.98,2.49-6.21,5.22c-6.71,5.97-8.45,6.46-10.44,2.24-1.49-3.23-2.24-3.48-4.47-1-.99,1.24-1.74,1.24-2.98.25-.75-.5-1.49-1.74-1.49-2.49,0-1.74,5.22-6.71,10.19-9.7q3.73-2.24.99-2.98c-4.47-1-8.95-5.22-8.95-8.2,0-1.74.5-2.98.75-2.98.5,0,4.47,1.99,9.2,4.23,10.19,4.72,11.19,4.97,9.69,1-3.73-9.45,1.99-22.37,5.97-13.67.99,2.24.99,3.23,0,4.23-1.74,1.74-1.74,8.95,0,8.95.75,0,3.23-1.49,5.47-3.48,5.22-3.98,13.42-7.96,16.9-7.96,3.23,0,4.72,1.24,5.72,4.72.75,2.98.5,3.23-2.49,3.23-1.74,0-5.72,1.49-8.45,2.98-2.98,1.49-4.23,2.49-2.98,2.24,3.98-1.24,15.41-1.99,18.15-1.24,5.22,1.24,4.97,7.46,0,7.46-2.98,0-21.13,3.23-21.63,3.98-.25,0,2.24,3.23,5.22,6.96,5.47,6.21,7.46,10.94,4.47,10.94-.75,0-4.97-3.73-9.2-8.2l-7.95-8.2v11.68c0,10.94-.99,14.42-2.73,9.69-.5-.99-1.24-5.97-1.49-10.94Z"/>
  <path d="m759.13,151.52h.75c4.23.5,7.71,6.21,4.97,7.95-1.74.99-18.64,6.46-40.77,13.17-14.67,4.47-53.44,18.89-71.84,26.35-14.92,6.21-15.66,6.71-23.12,14.92-11.68,12.93-23.62,23.86-41.02,38.03-28.09,22.87-53.2,38.28-86.01,52.7-21.38,9.45-30.58,10.94-36.04,6.71-2.24-1.74-2.98-3.48-2.98-6.71,0-3.73.99-5.22,11.93-15.66,25.6-24.61,72.34-54.69,128.02-82.53,22.87-11.19,25.85-13.17,30.58-18.64,7.21-8.2,17.15-21.13,21.63-28.09,4.47-6.71,7.95-7.96,10.94-3.73,1.74,2.49,1.49,3.23-1.74,9.69-1.99,3.73-4.97,9.2-6.96,11.93-1.74,2.73-3.23,5.22-2.98,5.22.25.25,6.46-1.74,13.67-4.47,33.31-12.93,81.04-26.85,90.98-26.85Zm-77.31-32.32c1.49,0,3.23.75,4.72,2.24,3.23,3.23,2.98,5.97-1.49,10.19-4.72,4.47-6.71,4.47-9.94.5-2.98-3.73-2.98-4.47.5-9.2,1.99-2.49,3.98-3.73,6.21-3.73Z"/>
  <path d="m652.24,240.76c-1.74-5.47,10.94-14.42,44.99-32.07l17.4-8.7-2.24-4.23c-7.46-14.17-1.74-22.12,26.1-35.8,19.64-9.94,29.58-12.68,34.55-10.19,4.47,1.99,8.7,9.45,6.71,11.43-1.24,1.24-1.74,1.24-2.98,0-2.24-2.24-7.46-1.49-16.66,2.24-15.66,6.21-37.78,19.89-40.52,25.36-1.24,1.99-.5,5.22,1.74,7.71,0,.25,9.45-3.48,20.88-8.2,39.77-16.66,89.99-34.3,100.43-35.55,2.73-.25,4.23.25,4.97,1.49,2.24,3.48,0,5.47-8.45,7.95-15.41,4.72-75.07,26.85-102.42,38.03l-10.94,4.72.5,5.22c.25,3.98-.25,5.97-2.24,8.95-8.95,13.17-48.22,30.58-64.63,28.59-3.48-.5-5.97-2.98-7.21-6.96Z"/>
</svg>